<svg version="1.1" id="Layer_1" xmlns="http://www.w3.org/2000/svg" xmlns:xlink="http://www.w3.org/1999/xlink" x="0px" y="0px"
	 width="100%" viewBox="0 0 1562 476" enable-background="new 0 0 1562 476" xml:space="preserve">
<path fill="#181818" opacity="1.000000" stroke="none" 
	d="
M1017.000000,477.000000 
	C678.041504,477.000000 339.582977,477.000000 1.062223,477.000000 
	C1.062223,318.394287 1.062223,159.788528 1.062223,1.091390 
	C521.666687,1.091390 1042.333374,1.091390 1562.966309,1.091390 
	C1562.966309,159.750504 1562.966309,318.375244 1562.966309,477.000000 
	C1381.121704,477.000000 1199.310913,477.000000 1017.000000,477.000000 
M382.831116,254.234268 
	C386.383911,231.952438 385.955170,209.786423 380.989136,187.734985 
	C358.950714,89.874794 256.342194,31.952757 161.305710,63.738514 
	C80.942856,90.616547 32.687687,170.956161 46.880329,254.244354 
	C64.855080,359.727509 175.443054,423.469086 275.121704,384.705048 
	C334.405792,361.650085 369.937164,317.473480 382.831116,254.234268 
M676.968811,298.418457 
	C684.484558,269.591858 684.942261,240.675079 675.782227,212.270859 
	C666.202820,182.566559 647.838928,161.180084 615.123047,156.599167 
	C591.751465,153.326630 570.510864,158.497269 556.315063,178.858658 
	C549.783081,188.227631 545.749939,199.429810 541.227600,210.074295 
	C538.577881,216.311279 539.148132,216.553558 531.571045,214.944168 
	C542.632019,174.516800 539.650146,133.164383 539.918518,92.001678 
	C524.238220,92.001678 509.030731,92.001678 493.713318,92.001678 
	C493.713318,178.840515 493.713318,265.287079 493.713318,351.850708 
	C506.775330,351.850708 519.618286,351.850708 532.466797,351.850708 
	C532.466797,333.675842 532.466797,315.926422 532.466797,297.982605 
	C533.761536,297.982605 534.756165,297.956604 535.748840,297.989990 
	C536.722107,298.022705 537.693298,298.115936 538.664856,298.182556 
	C538.833618,298.864014 538.955750,299.326660 539.062439,299.792816 
	C542.801025,316.118378 548.814941,331.315704 561.776062,342.673706 
	C584.403748,362.502808 625.022888,362.046539 649.649231,341.938812 
	C663.432373,330.684662 671.502625,315.835205 676.968811,298.418457 
M1294.285156,277.962769 
	C1293.834595,274.047394 1293.383911,270.132019 1292.805176,265.102936 
	C1338.235107,265.102936 1383.093140,265.102936 1429.402588,265.102936 
	C1428.534790,252.044846 1428.529297,240.028717 1426.781982,228.271500 
	C1423.621216,207.004501 1415.224365,188.063660 1398.355347,173.804016 
	C1383.760132,161.466507 1366.445801,156.493088 1347.707642,155.579865 
	C1308.067261,153.647919 1273.929932,170.910294 1257.466187,209.802948 
	C1246.284302,236.217819 1244.771729,263.766998 1251.848633,291.468506 
	C1260.238770,324.310822 1281.270264,345.151276 1314.171875,353.449646 
	C1335.013306,358.706268 1356.123169,358.577393 1376.985229,353.578156 
	C1394.708374,349.331055 1409.488647,340.122009 1419.758911,324.659454 
	C1425.001099,316.767090 1428.669312,308.180878 1430.222046,298.512909 
	C1416.520630,295.424042 1403.333618,292.451141 1390.089600,289.465363 
	C1389.548462,291.038818 1389.236450,291.974243 1388.904663,292.902588 
	C1388.569458,293.840546 1388.221558,294.774109 1387.867065,295.704895 
	C1382.981934,308.529846 1374.234131,317.738220 1360.737915,320.496948 
	C1352.423340,322.196533 1343.373657,322.642822 1335.015747,321.336578 
	C1312.205322,317.771576 1298.858887,303.082977 1294.285156,277.962769 
M970.120361,329.620605 
	C973.817627,323.334259 977.848816,317.213531 981.081116,310.696594 
	C982.886292,307.056885 984.688171,305.451141 988.463257,307.032074 
	C989.936035,322.138519 991.397095,337.125214 992.845276,351.979614 
	C1007.311462,351.979614 1020.909668,351.979614 1034.592041,351.979614 
	C1033.718506,341.758362 1032.414307,331.855682 1032.110962,321.922424 
	C1031.281982,294.782104 1031.026733,267.624420 1030.222290,240.483139 
	C1029.922119,230.359451 1029.525513,220.123566 1027.792114,210.179520 
	C1023.035461,182.890076 1007.793640,164.531464 980.062500,158.382629 
	C958.415344,153.582779 936.603149,153.974915 915.374817,160.412994 
	C888.235779,168.643646 870.657288,186.760910 862.825256,214.676788 
	C876.761963,218.973160 890.458435,223.195480 904.153625,227.417404 
	C909.454102,210.109665 916.047852,201.481262 928.266479,196.224045 
	C939.604065,191.345871 951.439514,190.372604 963.469971,192.982422 
	C974.050049,195.277588 981.033447,201.866455 983.289246,212.402069 
	C986.715881,228.406021 980.980347,233.596207 969.590454,236.368286 
	C968.624634,236.603348 967.662292,236.863785 966.685181,237.039322 
	C951.801331,239.712952 936.799011,241.861862 922.067993,245.206345 
	C910.956360,247.729080 899.855225,250.964996 889.338989,255.310349 
	C864.046997,265.761169 855.719055,285.100983 858.557617,311.675110 
	C861.008972,334.624969 874.920898,351.248199 898.879150,355.647095 
	C927.072937,360.823669 951.232117,352.962585 970.120361,329.620605 
M1171.500000,160.099991 
	C1136.093872,160.099991 1100.687622,160.099991 1065.254395,160.099991 
	C1065.254395,173.066483 1065.254395,185.334412 1065.254395,198.159424 
	C1098.820801,198.159424 1132.186279,198.159424 1167.243530,198.159424 
	C1165.239014,201.742142 1164.301514,204.552704 1162.466064,206.529587 
	C1130.618042,240.830750 1098.653320,275.023499 1066.750488,309.273865 
	C1065.547485,310.565430 1063.864014,312.183258 1063.836914,313.675049 
	C1063.604858,326.429504 1063.703979,339.189941 1063.703979,352.104431 
	C1117.999878,352.104431 1171.742676,352.104431 1225.701538,352.104431 
	C1225.701538,339.386353 1225.701538,326.841675 1225.701538,313.970215 
	C1190.984863,313.970215 1156.551392,313.970215 1120.475708,313.970215 
	C1122.360962,310.623505 1123.293701,307.850739 1125.112061,305.906372 
	C1154.012085,275.005005 1182.646240,243.838348 1212.232788,213.604980 
	C1221.738647,203.891296 1227.480835,194.310913 1225.329712,180.503983 
	C1224.493652,175.136810 1225.216431,169.530228 1225.175415,164.033096 
	C1225.166016,162.780228 1224.933716,161.529037 1224.785645,160.099991 
	C1207.115356,160.099991 1189.807617,160.099991 1171.500000,160.099991 
M720.262756,181.500092 
	C720.262756,238.258392 720.262756,295.016693 720.262756,352.022644 
	C735.997925,352.022644 751.226135,352.022644 766.900940,352.022644 
	C766.900940,349.987000 766.900940,348.190491 766.900940,346.393951 
	C766.900940,321.573853 767.123962,296.751007 766.820740,271.934601 
	C766.626099,256.003387 771.069641,241.348221 778.376770,227.602310 
	C787.689453,210.083694 802.599915,201.528488 822.639771,203.138855 
	C828.797729,203.633698 834.872131,205.168442 841.355408,206.291168 
	C841.953186,190.332886 842.550476,174.388367 843.199707,157.057785 
	C835.188843,156.710098 827.460388,155.771042 819.800659,156.165833 
	C803.027466,157.030380 789.091858,163.996933 780.324890,178.643463 
	C775.951843,185.949326 772.889221,194.186737 770.228699,202.327911 
	C767.730530,209.972397 766.542297,218.045029 764.774963,225.941376 
	C762.807373,225.941376 761.041138,225.941376 759.148193,225.941376 
	C759.148193,203.999374 759.148193,182.255936 759.148193,160.367783 
	C746.201660,160.367783 733.476807,160.367783 720.262756,160.367783 
	C720.262756,167.253403 720.262756,173.876801 720.262756,181.500092 
M1454.368896,344.934937 
	C1458.460938,348.157288 1462.093506,352.581085 1466.738403,354.357574 
	C1477.131836,358.332458 1488.005981,357.766724 1498.484131,353.871613 
	C1505.301392,351.337372 1510.270386,346.395355 1511.600586,339.274017 
	C1512.675781,333.518311 1512.776123,327.369781 1512.080688,321.542053 
	C1510.963501,312.179993 1505.011108,306.412262 1496.010376,303.865417 
	C1486.683105,301.226105 1477.293335,301.108185 1467.940063,303.695770 
	C1460.179688,305.842651 1454.566406,310.588318 1452.398926,318.453003 
	C1450.001709,327.151062 1450.010742,335.880157 1454.368896,344.934937 
z"/>
<path fill="#FE851B" opacity="1.000000" stroke="none" 
	d="
M382.748352,254.658325 
	C369.937164,317.473480 334.405792,361.650085 275.121704,384.705048 
	C175.443054,423.469086 64.855080,359.727509 46.880329,254.244354 
	C32.687687,170.956161 80.942856,90.616547 161.305710,63.738514 
	C256.342194,31.952757 358.950714,89.874794 380.989136,187.734985 
	C385.955170,209.786423 386.383911,231.952438 382.748352,254.658325 
M219.447174,105.174339 
	C214.116257,105.174484 208.776840,105.355232 203.457718,105.104774 
	C200.429184,104.962173 199.049103,106.156044 197.969543,108.850586 
	C194.197418,118.265732 190.201111,127.591240 186.272171,136.943314 
	C183.922409,142.536407 177.808960,145.099686 172.112534,142.820099 
	C162.695099,139.051468 153.255554,135.330612 143.928680,131.347656 
	C141.196274,130.180801 139.518112,130.549698 137.499344,132.687729 
	C132.354858,138.136078 127.073990,143.472046 121.587685,148.573349 
	C119.317825,150.683945 119.355797,152.409103 120.474197,155.016754 
	C124.472015,164.338135 128.254791,173.752243 132.076248,183.148605 
	C134.168884,188.294098 131.470825,194.878296 126.356468,197.089279 
	C117.047409,201.113693 107.753586,205.178604 98.366783,209.014664 
	C95.692894,210.107376 94.481812,211.421417 94.573608,214.472641 
	C94.798943,221.962326 94.799141,229.467911 94.573524,236.957581 
	C94.481377,240.016403 95.694359,241.316452 98.387405,242.378769 
	C107.201836,245.855743 115.913452,249.593658 124.659981,253.242325 
	C132.054993,256.327209 134.528061,262.112122 131.595734,269.448059 
	C128.015808,278.404083 124.544472,287.406403 120.774933,296.281982 
	C119.619026,299.003662 119.833183,300.760864 122.016312,302.818054 
	C127.105957,307.614044 132.117203,312.517242 136.834244,317.675110 
	C139.447830,320.532959 141.606888,321.223663 145.356155,319.506226 
	C154.419800,315.354462 163.737656,311.753479 172.982971,308.004272 
	C177.673340,306.102234 184.152435,308.781708 186.145813,313.397675 
	C190.233536,322.863495 194.398438,332.299774 198.249939,341.861633 
	C199.514160,345.000214 201.193619,346.048218 204.550415,345.911621 
	C211.535538,345.627258 218.548691,345.623383 225.533386,345.912842 
	C228.914154,346.052948 230.578491,344.968964 231.805130,341.821564 
	C235.366898,332.682465 239.260132,323.672577 243.021942,314.611420 
	C245.734726,308.077118 251.314896,305.671906 257.731506,308.256683 
	C267.138336,312.046021 276.588531,315.731842 285.933502,319.667694 
	C288.453369,320.728943 290.034058,320.546875 291.972321,318.487854 
	C297.108093,313.032043 302.425232,307.736389 307.863861,302.581390 
	C310.012451,300.544861 310.376129,298.829926 309.178986,296.073944 
	C305.138306,286.771851 301.389954,277.342712 297.535217,267.959930 
	C295.092743,262.014679 297.368591,256.389832 303.190460,253.913361 
	C312.678284,249.877533 322.129761,245.753586 331.667053,241.838501 
	C334.190063,240.802795 335.171600,239.465439 335.089874,236.660339 
	C334.876465,229.336700 334.837219,221.996201 335.099915,214.675766 
	C335.219208,211.351013 334.268036,209.681122 331.049255,208.444031 
	C321.586151,204.807022 312.280823,200.759659 302.912262,196.876480 
	C297.655182,194.697479 295.057983,188.759476 297.150299,183.539413 
	C301.047485,173.816574 304.921112,164.083282 308.952026,154.415817 
	C309.974670,151.963089 309.919098,150.313919 307.809662,148.339417 
	C302.339844,143.219513 297.068512,137.877670 291.898560,132.452316 
	C289.910950,130.366531 288.268372,129.824600 285.452118,131.060547 
	C276.014771,135.202255 266.432556,139.014435 256.898132,142.934128 
	C251.814407,145.024109 245.493988,142.501663 243.338501,137.495697 
	C239.918884,129.553818 235.993408,121.772102 233.322922,113.583153 
	C231.094650,106.750298 227.537354,103.675690 219.447174,105.174339 
z"/>
<path fill="#FEFEFE" opacity="1.000000" stroke="none" 
	d="
M676.886353,298.813660 
	C671.502625,315.835205 663.432373,330.684662 649.649231,341.938812 
	C625.022888,362.046539 584.403748,362.502808 561.776062,342.673706 
	C548.814941,331.315704 542.801025,316.118378 539.062439,299.792816 
	C538.955750,299.326660 538.833618,298.864014 538.664856,298.182556 
	C537.693298,298.115936 536.722107,298.022705 535.748840,297.989990 
	C534.756165,297.956604 533.761536,297.982605 532.466797,297.982605 
	C532.466797,315.926422 532.466797,333.675842 532.466797,351.850708 
	C519.618286,351.850708 506.775330,351.850708 493.713318,351.850708 
	C493.713318,265.287079 493.713318,178.840515 493.713318,92.001678 
	C509.030731,92.001678 524.238220,92.001678 539.918518,92.001678 
	C539.650146,133.164383 542.632019,174.516800 531.571045,214.944168 
	C539.148132,216.553558 538.577881,216.311279 541.227600,210.074295 
	C545.749939,199.429810 549.783081,188.227631 556.315063,178.858658 
	C570.510864,158.497269 591.751465,153.326630 615.123047,156.599167 
	C647.838928,161.180084 666.202820,182.566559 675.782227,212.270859 
	C684.942261,240.675079 684.484558,269.591858 676.886353,298.813660 
M585.036255,194.305420 
	C573.058411,195.775085 563.507690,201.518021 555.804993,210.678894 
	C536.262939,233.920334 534.215759,272.829559 551.556458,297.806793 
	C561.411316,312.001587 574.708679,320.198761 592.557007,318.593445 
	C611.064148,316.928925 622.585815,305.843506 628.435059,289.083527 
	C636.124023,267.052155 636.111633,244.628372 627.928772,222.682831 
	C620.486938,202.724609 605.896301,193.236786 585.036255,194.305420 
z"/>
<path fill="#FDFDFD" opacity="1.000000" stroke="none" 
	d="
M1294.404541,278.376801 
	C1298.858887,303.082977 1312.205322,317.771576 1335.015747,321.336578 
	C1343.373657,322.642822 1352.423340,322.196533 1360.737915,320.496948 
	C1374.234131,317.738220 1382.981934,308.529846 1387.867065,295.704895 
	C1388.221558,294.774109 1388.569458,293.840546 1388.904663,292.902588 
	C1389.236450,291.974243 1389.548462,291.038818 1390.089600,289.465363 
	C1403.333618,292.451141 1416.520630,295.424042 1430.222046,298.512909 
	C1428.669312,308.180878 1425.001099,316.767090 1419.758911,324.659454 
	C1409.488647,340.122009 1394.708374,349.331055 1376.985229,353.578156 
	C1356.123169,358.577393 1335.013306,358.706268 1314.171875,353.449646 
	C1281.270264,345.151276 1260.238770,324.310822 1251.848633,291.468506 
	C1244.771729,263.766998 1246.284302,236.217819 1257.466187,209.802948 
	C1273.929932,170.910294 1308.067261,153.647919 1347.707642,155.579865 
	C1366.445801,156.493088 1383.760132,161.466507 1398.355347,173.804016 
	C1415.224365,188.063660 1423.621216,207.004501 1426.781982,228.271500 
	C1428.529297,240.028717 1428.534790,252.044846 1429.402588,265.102936 
	C1383.093140,265.102936 1338.235107,265.102936 1292.805176,265.102936 
	C1293.383911,270.132019 1293.834595,274.047394 1294.404541,278.376801 
M1313.670776,202.116196 
	C1302.488525,211.584885 1297.115601,224.006180 1294.740112,237.964645 
	C1325.370483,237.964645 1355.426880,237.964645 1385.689575,237.964645 
	C1385.428833,234.995087 1385.390137,232.655182 1384.996460,230.376648 
	C1382.016724,213.127686 1373.927490,199.576431 1356.284668,194.354095 
	C1341.323975,189.925690 1327.003662,192.012619 1313.670776,202.116196 
z"/>
<path fill="#FDFDFD" opacity="1.000000" stroke="none" 
	d="
M969.917542,329.912415 
	C951.232117,352.962585 927.072937,360.823669 898.879150,355.647095 
	C874.920898,351.248199 861.008972,334.624969 858.557617,311.675110 
	C855.719055,285.100983 864.046997,265.761169 889.338989,255.310349 
	C899.855225,250.964996 910.956360,247.729080 922.067993,245.206345 
	C936.799011,241.861862 951.801331,239.712952 966.685181,237.039322 
	C967.662292,236.863785 968.624634,236.603348 969.590454,236.368286 
	C980.980347,233.596207 986.715881,228.406021 983.289246,212.402069 
	C981.033447,201.866455 974.050049,195.277588 963.469971,192.982422 
	C951.439514,190.372604 939.604065,191.345871 928.266479,196.224045 
	C916.047852,201.481262 909.454102,210.109665 904.153625,227.417404 
	C890.458435,223.195480 876.761963,218.973160 862.825256,214.676788 
	C870.657288,186.760910 888.235779,168.643646 915.374817,160.412994 
	C936.603149,153.974915 958.415344,153.582779 980.062500,158.382629 
	C1007.793640,164.531464 1023.035461,182.890076 1027.792114,210.179520 
	C1029.525513,220.123566 1029.922119,230.359451 1030.222290,240.483139 
	C1031.026733,267.624420 1031.281982,294.782104 1032.110962,321.922424 
	C1032.414307,331.855682 1033.718506,341.758362 1034.592041,351.979614 
	C1020.909668,351.979614 1007.311462,351.979614 992.845276,351.979614 
	C991.397095,337.125214 989.936035,322.138519 988.463257,307.032074 
	C984.688171,305.451141 982.886292,307.056885 981.081116,310.696594 
	C977.848816,317.213531 973.817627,323.334259 969.917542,329.912415 
M984.025696,285.089264 
	C984.516968,275.788757 985.008240,266.488251 985.462036,257.897369 
	C972.451294,260.425751 960.231873,262.470642 948.179626,265.242249 
	C937.724304,267.646606 927.111633,270.006500 917.200684,273.967865 
	C906.021484,278.436249 901.729004,287.780670 903.089111,299.873352 
	C904.329041,310.898132 911.529114,319.700623 922.609863,321.593506 
	C928.977295,322.681244 936.016907,322.695160 942.253052,321.158936 
	C961.740417,316.358368 974.728455,303.288757 984.025696,285.089264 
z"/>
<path fill="#FEFEFE" opacity="1.000000" stroke="none" 
	d="
M1172.000000,160.099991 
	C1189.807617,160.099991 1207.115356,160.099991 1224.785645,160.099991 
	C1224.933716,161.529037 1225.166016,162.780228 1225.175415,164.033096 
	C1225.216431,169.530228 1224.493652,175.136810 1225.329712,180.503983 
	C1227.480835,194.310913 1221.738647,203.891296 1212.232788,213.604980 
	C1182.646240,243.838348 1154.012085,275.005005 1125.112061,305.906372 
	C1123.293701,307.850739 1122.360962,310.623505 1120.475708,313.970215 
	C1156.551392,313.970215 1190.984863,313.970215 1225.701538,313.970215 
	C1225.701538,326.841675 1225.701538,339.386353 1225.701538,352.104431 
	C1171.742676,352.104431 1117.999878,352.104431 1063.703979,352.104431 
	C1063.703979,339.189941 1063.604858,326.429504 1063.836914,313.675049 
	C1063.864014,312.183258 1065.547485,310.565430 1066.750488,309.273865 
	C1098.653320,275.023499 1130.618042,240.830750 1162.466064,206.529587 
	C1164.301514,204.552704 1165.239014,201.742142 1167.243530,198.159424 
	C1132.186279,198.159424 1098.820801,198.159424 1065.254395,198.159424 
	C1065.254395,185.334412 1065.254395,173.066483 1065.254395,160.099991 
	C1100.687622,160.099991 1136.093872,160.099991 1172.000000,160.099991 
z"/>
<path fill="#FDFDFD" opacity="1.000000" stroke="none" 
	d="
M720.262756,181.000153 
	C720.262756,173.876801 720.262756,167.253403 720.262756,160.367783 
	C733.476807,160.367783 746.201660,160.367783 759.148193,160.367783 
	C759.148193,182.255936 759.148193,203.999374 759.148193,225.941376 
	C761.041138,225.941376 762.807373,225.941376 764.774963,225.941376 
	C766.542297,218.045029 767.730530,209.972397 770.228699,202.327911 
	C772.889221,194.186737 775.951843,185.949326 780.324890,178.643463 
	C789.091858,163.996933 803.027466,157.030380 819.800659,156.165833 
	C827.460388,155.771042 835.188843,156.710098 843.199707,157.057785 
	C842.550476,174.388367 841.953186,190.332886 841.355408,206.291168 
	C834.872131,205.168442 828.797729,203.633698 822.639771,203.138855 
	C802.599915,201.528488 787.689453,210.083694 778.376770,227.602310 
	C771.069641,241.348221 766.626099,256.003387 766.820740,271.934601 
	C767.123962,296.751007 766.900940,321.573853 766.900940,346.393951 
	C766.900940,348.190491 766.900940,349.987000 766.900940,352.022644 
	C751.226135,352.022644 735.997925,352.022644 720.262756,352.022644 
	C720.262756,295.016693 720.262756,238.258392 720.262756,181.000153 
z"/>
<path fill="#FD841C" opacity="1.000000" stroke="none" 
	d="
M1454.193481,344.600220 
	C1450.010742,335.880157 1450.001709,327.151062 1452.398926,318.453003 
	C1454.566406,310.588318 1460.179688,305.842651 1467.940063,303.695770 
	C1477.293335,301.108185 1486.683105,301.226105 1496.010376,303.865417 
	C1505.011108,306.412262 1510.963501,312.179993 1512.080688,321.542053 
	C1512.776123,327.369781 1512.675781,333.518311 1511.600586,339.274017 
	C1510.270386,346.395355 1505.301392,351.337372 1498.484131,353.871613 
	C1488.005981,357.766724 1477.131836,358.332458 1466.738403,354.357574 
	C1462.093506,352.581085 1458.460938,348.157288 1454.193481,344.600220 
z"/>
<path fill="#191918" opacity="1.000000" stroke="none" 
	d="
M219.934265,105.174385 
	C227.537354,103.675690 231.094650,106.750298 233.322922,113.583153 
	C235.993408,121.772102 239.918884,129.553818 243.338501,137.495697 
	C245.493988,142.501663 251.814407,145.024109 256.898132,142.934128 
	C266.432556,139.014435 276.014771,135.202255 285.452118,131.060547 
	C288.268372,129.824600 289.910950,130.366531 291.898560,132.452316 
	C297.068512,137.877670 302.339844,143.219513 307.809662,148.339417 
	C309.919098,150.313919 309.974670,151.963089 308.952026,154.415817 
	C304.921112,164.083282 301.047485,173.816574 297.150299,183.539413 
	C295.057983,188.759476 297.655182,194.697479 302.912262,196.876480 
	C312.280823,200.759659 321.586151,204.807022 331.049255,208.444031 
	C334.268036,209.681122 335.219208,211.351013 335.099915,214.675766 
	C334.837219,221.996201 334.876465,229.336700 335.089874,236.660339 
	C335.171600,239.465439 334.190063,240.802795 331.667053,241.838501 
	C322.129761,245.753586 312.678284,249.877533 303.190460,253.913361 
	C297.368591,256.389832 295.092743,262.014679 297.535217,267.959930 
	C301.389954,277.342712 305.138306,286.771851 309.178986,296.073944 
	C310.376129,298.829926 310.012451,300.544861 307.863861,302.581390 
	C302.425232,307.736389 297.108093,313.032043 291.972321,318.487854 
	C290.034058,320.546875 288.453369,320.728943 285.933502,319.667694 
	C276.588531,315.731842 267.138336,312.046021 257.731506,308.256683 
	C251.314896,305.671906 245.734726,308.077118 243.021942,314.611420 
	C239.260132,323.672577 235.366898,332.682465 231.805130,341.821564 
	C230.578491,344.968964 228.914154,346.052948 225.533386,345.912842 
	C218.548691,345.623383 211.535538,345.627258 204.550415,345.911621 
	C201.193619,346.048218 199.514160,345.000214 198.249939,341.861633 
	C194.398438,332.299774 190.233536,322.863495 186.145813,313.397675 
	C184.152435,308.781708 177.673340,306.102234 172.982971,308.004272 
	C163.737656,311.753479 154.419800,315.354462 145.356155,319.506226 
	C141.606888,321.223663 139.447830,320.532959 136.834244,317.675110 
	C132.117203,312.517242 127.105957,307.614044 122.016312,302.818054 
	C119.833183,300.760864 119.619026,299.003662 120.774933,296.281982 
	C124.544472,287.406403 128.015808,278.404083 131.595734,269.448059 
	C134.528061,262.112122 132.054993,256.327209 124.659981,253.242325 
	C115.913452,249.593658 107.201836,245.855743 98.387405,242.378769 
	C95.694359,241.316452 94.481377,240.016403 94.573524,236.957581 
	C94.799141,229.467911 94.798943,221.962326 94.573608,214.472641 
	C94.481812,211.421417 95.692894,210.107376 98.366783,209.014664 
	C107.753586,205.178604 117.047409,201.113693 126.356468,197.089279 
	C131.470825,194.878296 134.168884,188.294098 132.076248,183.148605 
	C128.254791,173.752243 124.472015,164.338135 120.474197,155.016754 
	C119.355797,152.409103 119.317825,150.683945 121.587685,148.573349 
	C127.073990,143.472046 132.354858,138.136078 137.499344,132.687729 
	C139.518112,130.549698 141.196274,130.180801 143.928680,131.347656 
	C153.255554,135.330612 162.695099,139.051468 172.112534,142.820099 
	C177.808960,145.099686 183.922409,142.536407 186.272171,136.943314 
	C190.201111,127.591240 194.197418,118.265732 197.969543,108.850586 
	C199.049103,106.156044 200.429184,104.962173 203.457718,105.104774 
	C208.776840,105.355232 214.116257,105.174484 219.934265,105.174385 
M199.664307,182.993439 
	C197.978271,183.694656 196.250931,184.311142 194.612488,185.109970 
	C174.283157,195.021561 164.464294,219.153687 172.065125,240.462433 
	C179.747589,262.000092 202.469971,274.620697 224.299728,269.474915 
	C249.835297,263.455627 264.776733,238.503723 257.941681,213.293655 
	C251.284088,188.738129 225.780655,175.199265 199.664307,182.993439 
z"/>
<path fill="#191919" opacity="1.000000" stroke="none" 
	d="
M585.478882,194.262299 
	C605.896301,193.236786 620.486938,202.724609 627.928772,222.682831 
	C636.111633,244.628372 636.124023,267.052155 628.435059,289.083527 
	C622.585815,305.843506 611.064148,316.928925 592.557007,318.593445 
	C574.708679,320.198761 561.411316,312.001587 551.556458,297.806793 
	C534.215759,272.829559 536.262939,233.920334 555.804993,210.678894 
	C563.507690,201.518021 573.058411,195.775085 585.478882,194.262299 
z"/>
<path fill="#191919" opacity="1.000000" stroke="none" 
	d="
M1313.974121,201.924774 
	C1327.003662,192.012619 1341.323975,189.925690 1356.284668,194.354095 
	C1373.927490,199.576431 1382.016724,213.127686 1384.996460,230.376648 
	C1385.390137,232.655182 1385.428833,234.995087 1385.689575,237.964645 
	C1355.426880,237.964645 1325.370483,237.964645 1294.740112,237.964645 
	C1297.115601,224.006180 1302.488525,211.584885 1313.974121,201.924774 
z"/>
<path fill="#191919" opacity="1.000000" stroke="none" 
	d="
M983.882446,285.468750 
	C974.728455,303.288757 961.740417,316.358368 942.253052,321.158936 
	C936.016907,322.695160 928.977295,322.681244 922.609863,321.593506 
	C911.529114,319.700623 904.329041,310.898132 903.089111,299.873352 
	C901.729004,287.780670 906.021484,278.436249 917.200684,273.967865 
	C927.111633,270.006500 937.724304,267.646606 948.179626,265.242249 
	C960.231873,262.470642 972.451294,260.425751 985.462036,257.897369 
	C985.008240,266.488251 984.516968,275.788757 983.882446,285.468750 
z"/>
<path fill="#FE841B" opacity="1.000000" stroke="none" 
	d="
M200.046646,182.877808 
	C225.780655,175.199265 251.284088,188.738129 257.941681,213.293655 
	C264.776733,238.503723 249.835297,263.455627 224.299728,269.474915 
	C202.469971,274.620697 179.747589,262.000092 172.065125,240.462433 
	C164.464294,219.153687 174.283157,195.021561 194.612488,185.109970 
	C196.250931,184.311142 197.978271,183.694656 200.046646,182.877808 
z"/>
</svg>