<svg version="1.1" id="Layer_1" xmlns="http://www.w3.org/2000/svg" xmlns:xlink="http://www.w3.org/1999/xlink" x="0px" y="0px"
	 width="100%" viewBox="0 0 2000 2000" enable-background="new 0 0 2000 2000" xml:space="preserve">
<path fill="#181818" opacity="1.000000" stroke="none" 
	d="
M1808.000000,2001.000000 
	C1205.333374,2001.000000 603.166687,2001.000000 1.000000,2001.000000 
	C1.000000,1334.333374 1.000000,667.666687 1.000000,1.000000 
	C667.666687,1.000000 1334.333374,1.000000 2001.000000,1.000000 
	C2001.000000,667.666687 2001.000000,1334.333374 2001.000000,2001.000000 
	C1936.833374,2001.000000 1872.666626,2001.000000 1808.000000,2001.000000 
M494.193695,840.289734 
	C457.834503,827.443542 421.080200,826.246216 384.385986,838.078918 
	C302.321198,864.542236 253.946411,944.441833 267.927185,1029.569214 
	C283.328308,1123.345093 376.873688,1187.306885 469.723297,1167.547729 
	C543.479248,1151.851929 597.113403,1092.780396 605.205444,1018.330566 
	C613.595276,941.141663 567.876160,867.490784 494.193695,840.289734 
M875.333801,1112.831665 
	C880.419556,1105.880127 886.923462,1099.561401 890.354370,1091.871582 
	C908.713745,1050.721191 908.983154,1009.188904 888.653076,968.736084 
	C878.084229,947.706299 860.229187,934.533325 836.265503,931.582642 
	C810.106689,928.361755 787.928162,934.747314 773.164246,959.874268 
	C768.583008,967.671143 765.474854,976.391296 762.219666,984.890747 
	C759.787231,991.241699 760.164368,991.386169 754.238647,990.294922 
	C756.483032,969.793884 759.595764,949.409729 760.710693,928.916870 
	C761.829529,908.351929 760.956665,887.678711 760.956665,866.913818 
	C745.341980,866.913818 730.104187,866.913818 714.767822,866.913818 
	C714.767822,953.770813 714.767822,1040.319336 714.767822,1127.032227 
	C727.796204,1127.032227 740.553406,1127.032227 753.498291,1127.032227 
	C753.498291,1108.911011 753.498291,1091.033325 753.498291,1073.218506 
	C755.789551,1073.218506 757.746765,1073.218506 759.692627,1073.218506 
	C760.193604,1075.369873 760.578613,1077.314453 761.101013,1079.221436 
	C765.773254,1096.276855 773.269653,1111.419800 788.301636,1122.028809 
	C809.177551,1136.762451 851.628906,1136.565674 875.333801,1112.831665 
M1587.288208,1130.777222 
	C1588.760498,1130.508057 1590.235718,1130.253784 1591.704590,1129.967529 
	C1620.015503,1124.451294 1640.296875,1109.405273 1649.441895,1081.212280 
	C1650.231567,1078.778076 1650.653564,1076.224487 1651.294800,1073.521606 
	C1637.490112,1070.412476 1624.310181,1067.444214 1611.193237,1064.490112 
	C1601.310669,1096.466553 1576.608398,1100.944458 1551.568481,1095.539307 
	C1528.765991,1090.617065 1514.454834,1070.507446 1514.516602,1040.195557 
	C1559.267456,1040.195557 1604.023438,1040.195557 1649.004028,1040.195557 
	C1650.619385,1027.192139 1649.908325,1015.079956 1647.876587,1003.093506 
	C1644.313721,982.073059 1636.274414,963.231323 1619.612427,949.020325 
	C1604.921509,936.490479 1587.456177,931.466675 1568.544067,930.565491 
	C1528.827148,928.672791 1494.924927,946.201721 1478.609497,984.499939 
	C1467.352295,1010.924500 1465.784424,1038.450195 1472.751953,1066.145508 
	C1481.067505,1099.198975 1502.234253,1120.077026 1535.314209,1128.536621 
	C1552.144043,1132.840698 1569.254517,1132.830322 1587.288208,1130.777222 
M1197.033936,932.481812 
	C1178.260620,929.317139 1159.505127,929.459473 1141.042969,934.126648 
	C1111.580933,941.574524 1092.362671,959.884216 1083.780884,989.678406 
	C1097.840942,994.002991 1111.520508,998.210571 1125.467773,1002.500488 
	C1128.474854,987.672729 1136.110107,977.087524 1149.380249,971.210327 
	C1160.495605,966.287537 1172.200073,965.458496 1184.083496,967.904480 
	C1195.158081,970.184082 1202.310425,977.070740 1204.459106,987.972839 
	C1207.231934,1002.041504 1203.170044,1008.235168 1190.971436,1011.251648 
	C1189.845459,1011.530029 1188.724121,1011.842712 1187.584229,1012.047668 
	C1172.702515,1014.723999 1157.700562,1016.868286 1142.972168,1020.216125 
	C1131.862061,1022.741577 1120.755127,1025.971313 1110.253052,1030.343994 
	C1084.736450,1040.968262 1076.769287,1060.270264 1079.526001,1086.264038 
	C1081.862915,1108.300537 1093.626831,1123.153931 1115.117798,1129.535767 
	C1126.988403,1133.060913 1139.151489,1133.057861 1151.174194,1130.316162 
	C1176.046021,1124.644409 1192.046021,1108.544434 1202.079590,1085.860229 
	C1203.709839,1082.174316 1205.518066,1080.407959 1209.465942,1082.008789 
	C1210.925903,1097.052368 1212.384521,1112.082153 1213.840210,1127.083008 
	C1228.118774,1127.083008 1241.749756,1127.083008 1255.590454,1127.083008 
	C1254.719360,1116.787231 1253.407959,1106.717896 1253.101685,1096.618042 
	C1252.273926,1069.313477 1252.021973,1041.991699 1251.224487,1014.686035 
	C1250.938599,1004.896057 1250.427002,995.020386 1248.839233,985.377930 
	C1244.004272,956.013611 1225.979980,937.730286 1197.033936,932.481812 
M1417.449585,1004.951111 
	C1426.231079,995.598938 1435.030273,986.263245 1443.769043,976.871216 
	C1444.741577,975.825806 1446.037964,974.468689 1446.054321,973.241089 
	C1446.222534,960.644287 1446.157471,948.044373 1446.157471,935.389160 
	C1392.529053,935.389160 1339.467285,935.389160 1286.369263,935.389160 
	C1286.369263,948.073792 1286.369263,960.465393 1286.369263,973.259888 
	C1319.925659,973.259888 1353.161865,973.259888 1388.059204,973.259888 
	C1386.201050,976.696289 1385.331177,979.522949 1383.518921,981.474976 
	C1351.663574,1015.789062 1319.683960,1049.987793 1287.781494,1084.258423 
	C1286.487915,1085.647949 1284.830078,1087.481689 1284.797363,1089.137451 
	C1284.547729,1101.737305 1284.660645,1114.344238 1284.660645,1126.929199 
	C1339.065674,1126.929199 1392.927856,1126.929199 1446.708008,1126.929199 
	C1446.708008,1114.152100 1446.708008,1101.727417 1446.708008,1088.971436 
	C1411.988159,1088.971436 1377.546021,1088.971436 1341.638794,1088.971436 
	C1343.304810,1085.798828 1344.076904,1083.090942 1345.786987,1081.258545 
	C1369.433105,1055.919678 1393.208008,1030.701050 1417.449585,1004.951111 
M958.501892,935.097107 
	C952.897461,935.097107 947.293091,935.097107 941.519287,935.097107 
	C941.519287,999.414062 941.519287,1063.129761 941.519287,1127.051514 
	C957.045654,1127.051514 972.316650,1127.051514 987.899719,1127.051514 
	C987.899719,1125.009766 987.899780,1123.196899 987.899780,1121.384033 
	C987.899780,1096.559570 988.119873,1071.732544 987.820557,1046.911743 
	C987.628479,1030.981934 992.077087,1016.328857 999.387451,1002.584106 
	C1008.706421,985.062683 1023.624695,976.524658 1043.661133,978.138916 
	C1049.825195,978.635620 1055.905029,980.176636 1062.357178,981.297363 
	C1062.954346,965.310608 1063.550293,949.357117 1064.201172,931.932983 
	C1055.666748,931.650696 1047.401978,930.628174 1039.266357,931.262939 
	C1021.908997,932.617310 1008.118469,940.654297 999.711365,956.219116 
	C996.117432,962.872742 993.417053,970.122803 991.195435,977.372986 
	C988.836975,985.069946 987.528015,993.088440 985.771179,1000.919739 
	C983.759705,1000.919739 981.998230,1000.919739 980.145752,1000.919739 
	C980.145752,978.945007 980.145752,957.192139 980.145752,935.097107 
	C973.110901,935.097107 966.305908,935.097107 958.501892,935.097107 
M1688.723999,1129.949341 
	C1698.265625,1132.608154 1707.826172,1132.552124 1717.275879,1129.696289 
	C1725.333374,1127.260986 1731.243164,1122.053101 1732.746948,1113.664551 
	C1733.778442,1107.909546 1733.704590,1101.754883 1732.955811,1095.929199 
	C1731.832520,1087.190552 1726.278687,1080.979980 1717.818481,1079.306396 
	C1709.813232,1077.722534 1701.265259,1076.958374 1693.217163,1077.951050 
	C1679.946899,1079.588257 1673.218628,1087.325928 1672.098267,1099.392944 
	C1670.596924,1115.562378 1675.175781,1124.324219 1688.723999,1129.949341 
z"/>
<path fill="#FE851B" opacity="1.000000" stroke="none" 
	d="
M494.545349,840.459839 
	C567.876160,867.490784 613.595276,941.141663 605.205444,1018.330566 
	C597.113403,1092.780396 543.479248,1151.851929 469.723297,1167.547729 
	C376.873688,1187.306885 283.328308,1123.345093 267.927185,1029.569214 
	C253.946411,944.441833 302.321198,864.542236 384.385986,838.078918 
	C421.080200,826.246216 457.834503,827.443542 494.545349,840.459839 
M491.731415,912.191895 
	C487.123779,914.106201 482.522461,916.035889 477.906830,917.930664 
	C472.815063,920.020996 466.492554,917.509644 464.341736,912.500488 
	C460.207489,902.872192 456.026764,893.261902 452.072418,883.559692 
	C451.029083,880.999817 449.704712,880.036743 446.914032,880.108704 
	C439.420898,880.301941 431.914673,880.330383 424.423676,880.099182 
	C421.368317,880.004883 420.030426,881.219360 418.962250,883.885010 
	C415.250397,893.147949 411.326599,902.325989 407.469666,911.530579 
	C404.860199,917.758057 398.976135,920.175964 392.606873,917.619446 
	C383.499786,913.963989 374.324707,910.460388 365.347321,906.508728 
	C362.160828,905.106140 360.349274,905.659973 358.101562,908.074646 
	C353.222992,913.315735 348.137909,918.379944 342.908691,923.272217 
	C340.634735,925.399536 340.157562,927.116577 341.472382,930.084900 
	C345.310669,938.750061 348.737152,947.597351 352.341766,956.366394 
	C355.415619,963.844360 353.179718,969.641174 345.934296,972.750427 
	C336.917603,976.619873 327.821838,980.314575 318.912323,984.415161 
	C317.427521,985.098450 315.863251,987.426453 315.793427,989.056946 
	C315.465851,996.707642 315.749268,1004.382324 315.592682,1012.043884 
	C315.537048,1014.765991 316.375549,1016.168396 319.010345,1017.212830 
	C328.438995,1020.950256 337.757965,1024.965698 347.103821,1028.910400 
	C352.561798,1031.214111 355.259521,1037.629150 353.080872,1043.135498 
	C349.348083,1052.569946 345.699249,1062.041382 341.733215,1071.377441 
	C340.543457,1074.178101 340.986023,1075.877441 343.094086,1077.889526 
	C348.516418,1083.065063 353.846924,1088.348511 358.980835,1093.808228 
	C360.931091,1095.882446 362.567017,1096.045288 365.049988,1094.979858 
	C373.914215,1091.176392 382.865326,1087.575562 391.781494,1083.893066 
	C399.440247,1080.729736 404.830505,1082.868042 408.018280,1090.330078 
	C411.873840,1099.355103 415.826172,1108.340454 419.542206,1117.422485 
	C420.574554,1119.945557 421.872925,1120.968262 424.681580,1120.893433 
	C432.174377,1120.693359 439.681335,1120.662109 447.171631,1120.904785 
	C450.230621,1121.003784 451.574890,1119.842773 452.647034,1117.147217 
	C456.457977,1107.566040 460.479889,1098.068481 464.458801,1088.554565 
	C466.582642,1083.476318 472.818451,1080.907959 477.938904,1082.950317 
	C487.361298,1086.708618 496.861603,1090.289062 506.156281,1094.340820 
	C509.504242,1095.800293 511.453766,1095.195557 513.790955,1092.667969 
	C518.312500,1087.778198 522.986023,1082.996460 527.936890,1078.548584 
	C530.872925,1075.911011 531.453979,1073.643311 529.801086,1069.969482 
	C525.708313,1060.872681 522.047363,1051.580811 518.251892,1042.351196 
	C516.110901,1037.144775 518.629700,1031.251709 523.883484,1029.016479 
	C533.372925,1024.979126 542.826233,1020.852844 552.377136,1016.966675 
	C555.068848,1015.871338 556.188904,1014.501648 556.094666,1011.475647 
	C555.861511,1003.984741 555.849609,996.476135 556.099792,988.986328 
	C556.202515,985.911926 554.994629,984.659607 552.320618,983.598633 
	C542.892883,979.858093 533.570740,975.851990 524.198181,971.971741 
	C518.418335,969.578918 516.028564,963.813171 518.415649,957.890076 
	C522.207458,948.481323 525.916138,939.037415 529.857178,929.691528 
	C530.973389,927.044678 530.914490,925.288635 528.663574,923.187622 
	C523.185486,918.074402 517.870117,912.768555 512.762878,907.285400 
	C510.639404,905.005737 508.872284,904.953491 506.262024,906.171570 
	C501.745636,908.279175 497.068390,910.042114 491.731415,912.191895 
z"/>
<path fill="#FEFEFE" opacity="1.000000" stroke="none" 
	d="
M875.068909,1113.068970 
	C851.628906,1136.565674 809.177551,1136.762451 788.301636,1122.028809 
	C773.269653,1111.419800 765.773254,1096.276855 761.101013,1079.221436 
	C760.578613,1077.314453 760.193604,1075.369873 759.692627,1073.218506 
	C757.746765,1073.218506 755.789551,1073.218506 753.498291,1073.218506 
	C753.498291,1091.033325 753.498291,1108.911011 753.498291,1127.032227 
	C740.553406,1127.032227 727.796204,1127.032227 714.767822,1127.032227 
	C714.767822,1040.319336 714.767822,953.770813 714.767822,866.913818 
	C730.104187,866.913818 745.341980,866.913818 760.956665,866.913818 
	C760.956665,887.678711 761.829529,908.351929 760.710693,928.916870 
	C759.595764,949.409729 756.483032,969.793884 754.238647,990.294922 
	C760.164368,991.386169 759.787231,991.241699 762.219666,984.890747 
	C765.474854,976.391296 768.583008,967.671143 773.164246,959.874268 
	C787.928162,934.747314 810.106689,928.361755 836.265503,931.582642 
	C860.229187,934.533325 878.084229,947.706299 888.653076,968.736084 
	C908.983154,1009.188904 908.713745,1050.721191 890.354370,1091.871582 
	C886.923462,1099.561401 880.419556,1105.880127 875.068909,1113.068970 
M760.988464,1036.325928 
	C761.644104,1049.178589 764.742920,1061.330933 772.064758,1072.057739 
	C782.154419,1086.839722 795.679138,1095.464111 814.208862,1093.489014 
	C833.408203,1091.442505 844.574646,1079.480347 850.050110,1061.959595 
	C852.501648,1054.115234 853.851562,1045.762207 854.475952,1037.546753 
	C855.635620,1022.287292 853.839478,1007.282532 847.027100,993.294312 
	C841.891113,982.748230 834.398987,974.553284 822.819702,970.964050 
	C805.359436,965.551941 787.592773,971.687866 775.553345,987.271057 
	C764.606079,1001.440552 760.161621,1017.615662 760.988464,1036.325928 
z"/>
<path fill="#FDFDFD" opacity="1.000000" stroke="none" 
	d="
M1586.851074,1130.834473 
	C1569.254517,1132.830322 1552.144043,1132.840698 1535.314209,1128.536621 
	C1502.234253,1120.077026 1481.067505,1099.198975 1472.751953,1066.145508 
	C1465.784424,1038.450195 1467.352295,1010.924500 1478.609497,984.499939 
	C1494.924927,946.201721 1528.827148,928.672791 1568.544067,930.565491 
	C1587.456177,931.466675 1604.921509,936.490479 1619.612427,949.020325 
	C1636.274414,963.231323 1644.313721,982.073059 1647.876587,1003.093506 
	C1649.908325,1015.079956 1650.619385,1027.192139 1649.004028,1040.195557 
	C1604.023438,1040.195557 1559.267456,1040.195557 1514.516602,1040.195557 
	C1514.454834,1070.507446 1528.765991,1090.617065 1551.568481,1095.539307 
	C1576.608398,1100.944458 1601.310669,1096.466553 1611.193237,1064.490112 
	C1624.310181,1067.444214 1637.490112,1070.412476 1651.294800,1073.521606 
	C1650.653564,1076.224487 1650.231567,1078.778076 1649.441895,1081.212280 
	C1640.296875,1109.405273 1620.015503,1124.451294 1591.704590,1129.967529 
	C1590.235718,1130.253784 1588.760498,1130.508057 1586.851074,1130.834473 
M1577.500000,1013.041870 
	C1587.130249,1013.041870 1596.760376,1013.041870 1606.380249,1013.041870 
	C1606.412964,987.235901 1591.390015,969.671753 1567.094360,967.526978 
	C1540.023682,965.137268 1519.338257,984.805359 1516.160645,1013.042297 
	C1536.269043,1013.042297 1556.384521,1013.042297 1577.500000,1013.041870 
z"/>
<path fill="#FDFDFD" opacity="1.000000" stroke="none" 
	d="
M1197.440430,932.613281 
	C1225.979980,937.730286 1244.004272,956.013611 1248.839233,985.377930 
	C1250.427002,995.020386 1250.938599,1004.896057 1251.224487,1014.686035 
	C1252.021973,1041.991699 1252.273926,1069.313477 1253.101685,1096.618042 
	C1253.407959,1106.717896 1254.719360,1116.787231 1255.590454,1127.083008 
	C1241.749756,1127.083008 1228.118774,1127.083008 1213.840210,1127.083008 
	C1212.384521,1112.082153 1210.925903,1097.052368 1209.465942,1082.008789 
	C1205.518066,1080.407959 1203.709839,1082.174316 1202.079590,1085.860229 
	C1192.046021,1108.544434 1176.046021,1124.644409 1151.174194,1130.316162 
	C1139.151489,1133.057861 1126.988403,1133.060913 1115.117798,1129.535767 
	C1093.626831,1123.153931 1081.862915,1108.300537 1079.526001,1086.264038 
	C1076.769287,1060.270264 1084.736450,1040.968262 1110.253052,1030.343994 
	C1120.755127,1025.971313 1131.862061,1022.741577 1142.972168,1020.216125 
	C1157.700562,1016.868286 1172.702515,1014.723999 1187.584229,1012.047668 
	C1188.724121,1011.842712 1189.845459,1011.530029 1190.971436,1011.251648 
	C1203.170044,1008.235168 1207.231934,1002.041504 1204.459106,987.972839 
	C1202.310425,977.070740 1195.158081,970.184082 1184.083496,967.904480 
	C1172.200073,965.458496 1160.495605,966.287537 1149.380249,971.210327 
	C1136.110107,977.087524 1128.474854,987.672729 1125.467773,1002.500488 
	C1111.520508,998.210571 1097.840942,994.002991 1083.780884,989.678406 
	C1092.362671,959.884216 1111.580933,941.574524 1141.042969,934.126648 
	C1159.505127,929.459473 1178.260620,929.317139 1197.440430,932.613281 
M1157.192749,1042.606934 
	C1150.747437,1044.686890 1144.103882,1046.306396 1137.911621,1048.973633 
	C1131.476074,1051.745605 1126.679565,1056.528809 1124.914551,1063.759155 
	C1119.968750,1084.017944 1134.546631,1100.337036 1155.719116,1097.657715 
	C1179.899170,1094.597778 1195.346802,1079.893921 1205.645996,1058.796997 
	C1205.998657,1058.074585 1206.207275,1057.203979 1206.211304,1056.401123 
	C1206.252197,1048.321289 1206.236328,1040.240967 1206.236328,1032.997559 
	C1189.765381,1036.176636 1173.874146,1039.243774 1157.192749,1042.606934 
z"/>
<path fill="#FEFEFE" opacity="1.000000" stroke="none" 
	d="
M1417.200439,1005.202026 
	C1393.208008,1030.701050 1369.433105,1055.919678 1345.786987,1081.258545 
	C1344.076904,1083.090942 1343.304810,1085.798828 1341.638794,1088.971436 
	C1377.546021,1088.971436 1411.988159,1088.971436 1446.708008,1088.971436 
	C1446.708008,1101.727417 1446.708008,1114.152100 1446.708008,1126.929199 
	C1392.927856,1126.929199 1339.065674,1126.929199 1284.660645,1126.929199 
	C1284.660645,1114.344238 1284.547729,1101.737305 1284.797363,1089.137451 
	C1284.830078,1087.481689 1286.487915,1085.647949 1287.781494,1084.258423 
	C1319.683960,1049.987793 1351.663574,1015.789062 1383.518921,981.474976 
	C1385.331177,979.522949 1386.201050,976.696289 1388.059204,973.259888 
	C1353.161865,973.259888 1319.925659,973.259888 1286.369263,973.259888 
	C1286.369263,960.465393 1286.369263,948.073792 1286.369263,935.389160 
	C1339.467285,935.389160 1392.529053,935.389160 1446.157471,935.389160 
	C1446.157471,948.044373 1446.222534,960.644287 1446.054321,973.241089 
	C1446.037964,974.468689 1444.741577,975.825806 1443.769043,976.871216 
	C1435.030273,986.263245 1426.231079,995.598938 1417.200439,1005.202026 
z"/>
<path fill="#FDFDFD" opacity="1.000000" stroke="none" 
	d="
M959.001343,935.097107 
	C966.305908,935.097107 973.110901,935.097107 980.145752,935.097107 
	C980.145752,957.192139 980.145752,978.945007 980.145752,1000.919739 
	C981.998230,1000.919739 983.759705,1000.919739 985.771179,1000.919739 
	C987.528015,993.088440 988.836975,985.069946 991.195435,977.372986 
	C993.417053,970.122803 996.117432,962.872742 999.711365,956.219116 
	C1008.118469,940.654297 1021.908997,932.617310 1039.266357,931.262939 
	C1047.401978,930.628174 1055.666748,931.650696 1064.201172,931.932983 
	C1063.550293,949.357117 1062.954346,965.310608 1062.357178,981.297363 
	C1055.905029,980.176636 1049.825195,978.635620 1043.661133,978.138916 
	C1023.624695,976.524658 1008.706421,985.062683 999.387451,1002.584106 
	C992.077087,1016.328857 987.628479,1030.981934 987.820557,1046.911743 
	C988.119873,1071.732544 987.899780,1096.559570 987.899780,1121.384033 
	C987.899780,1123.196899 987.899719,1125.009766 987.899719,1127.051514 
	C972.316650,1127.051514 957.045654,1127.051514 941.519287,1127.051514 
	C941.519287,1063.129761 941.519287,999.414062 941.519287,935.097107 
	C947.293091,935.097107 952.897461,935.097107 959.001343,935.097107 
z"/>
<path fill="#FE851B" opacity="1.000000" stroke="none" 
	d="
M1688.342285,1129.847900 
	C1675.175781,1124.324219 1670.596924,1115.562378 1672.098267,1099.392944 
	C1673.218628,1087.325928 1679.946899,1079.588257 1693.217163,1077.951050 
	C1701.265259,1076.958374 1709.813232,1077.722534 1717.818481,1079.306396 
	C1726.278687,1080.979980 1731.832520,1087.190552 1732.955811,1095.929199 
	C1733.704590,1101.754883 1733.778442,1107.909546 1732.746948,1113.664551 
	C1731.243164,1122.053101 1725.333374,1127.260986 1717.275879,1129.696289 
	C1707.826172,1132.552124 1698.265625,1132.608154 1688.342285,1129.847900 
z"/>
<path fill="#191918" opacity="1.000000" stroke="none" 
	d="
M492.095032,912.070740 
	C497.068390,910.042114 501.745636,908.279175 506.262024,906.171570 
	C508.872284,904.953491 510.639404,905.005737 512.762878,907.285400 
	C517.870117,912.768555 523.185486,918.074402 528.663574,923.187622 
	C530.914490,925.288635 530.973389,927.044678 529.857178,929.691528 
	C525.916138,939.037415 522.207458,948.481323 518.415649,957.890076 
	C516.028564,963.813171 518.418335,969.578918 524.198181,971.971741 
	C533.570740,975.851990 542.892883,979.858093 552.320618,983.598633 
	C554.994629,984.659607 556.202515,985.911926 556.099792,988.986328 
	C555.849609,996.476135 555.861511,1003.984741 556.094666,1011.475647 
	C556.188904,1014.501648 555.068848,1015.871338 552.377136,1016.966675 
	C542.826233,1020.852844 533.372925,1024.979126 523.883484,1029.016479 
	C518.629700,1031.251709 516.110901,1037.144775 518.251892,1042.351196 
	C522.047363,1051.580811 525.708313,1060.872681 529.801086,1069.969482 
	C531.453979,1073.643311 530.872925,1075.911011 527.936890,1078.548584 
	C522.986023,1082.996460 518.312500,1087.778198 513.790955,1092.667969 
	C511.453766,1095.195557 509.504242,1095.800293 506.156281,1094.340820 
	C496.861603,1090.289062 487.361298,1086.708618 477.938904,1082.950317 
	C472.818451,1080.907959 466.582642,1083.476318 464.458801,1088.554565 
	C460.479889,1098.068481 456.457977,1107.566040 452.647034,1117.147217 
	C451.574890,1119.842773 450.230621,1121.003784 447.171631,1120.904785 
	C439.681335,1120.662109 432.174377,1120.693359 424.681580,1120.893433 
	C421.872925,1120.968262 420.574554,1119.945557 419.542206,1117.422485 
	C415.826172,1108.340454 411.873840,1099.355103 408.018280,1090.330078 
	C404.830505,1082.868042 399.440247,1080.729736 391.781494,1083.893066 
	C382.865326,1087.575562 373.914215,1091.176392 365.049988,1094.979858 
	C362.567017,1096.045288 360.931091,1095.882446 358.980835,1093.808228 
	C353.846924,1088.348511 348.516418,1083.065063 343.094086,1077.889526 
	C340.986023,1075.877441 340.543457,1074.178101 341.733215,1071.377441 
	C345.699249,1062.041382 349.348083,1052.569946 353.080872,1043.135498 
	C355.259521,1037.629150 352.561798,1031.214111 347.103821,1028.910400 
	C337.757965,1024.965698 328.438995,1020.950256 319.010345,1017.212830 
	C316.375549,1016.168396 315.537048,1014.765991 315.592682,1012.043884 
	C315.749268,1004.382324 315.465851,996.707642 315.793427,989.056946 
	C315.863251,987.426453 317.427521,985.098450 318.912323,984.415161 
	C327.821838,980.314575 336.917603,976.619873 345.934296,972.750427 
	C353.179718,969.641174 355.415619,963.844360 352.341766,956.366394 
	C348.737152,947.597351 345.310669,938.750061 341.472382,930.084900 
	C340.157562,927.116577 340.634735,925.399536 342.908691,923.272217 
	C348.137909,918.379944 353.222992,913.315735 358.101562,908.074646 
	C360.349274,905.659973 362.160828,905.106140 365.347321,906.508728 
	C374.324707,910.460388 383.499786,913.963989 392.606873,917.619446 
	C398.976135,920.175964 404.860199,917.758057 407.469666,911.530579 
	C411.326599,902.325989 415.250397,893.147949 418.962250,883.885010 
	C420.030426,881.219360 421.368317,880.004883 424.423676,880.099182 
	C431.914673,880.330383 439.420898,880.301941 446.914032,880.108704 
	C449.704712,880.036743 451.029083,880.999817 452.072418,883.559692 
	C456.026764,893.261902 460.207489,902.872192 464.341736,912.500488 
	C466.492554,917.509644 472.815063,920.020996 477.906830,917.930664 
	C482.522461,916.035889 487.123779,914.106201 492.095032,912.070740 
M480.233704,995.345520 
	C477.330780,970.066223 455.326172,953.055481 429.261230,955.941223 
	C405.150116,958.610657 388.067078,981.396301 391.000946,1006.973450 
	C393.736725,1030.823730 416.388977,1047.847412 441.693146,1045.069824 
	C465.066620,1042.504272 482.807434,1020.067566 480.233704,995.345520 
z"/>
<path fill="#191918" opacity="1.000000" stroke="none" 
	d="
M760.982056,1035.846680 
	C760.161621,1017.615662 764.606079,1001.440552 775.553345,987.271057 
	C787.592773,971.687866 805.359436,965.551941 822.819702,970.964050 
	C834.398987,974.553284 841.891113,982.748230 847.027100,993.294312 
	C853.839478,1007.282532 855.635620,1022.287292 854.475952,1037.546753 
	C853.851562,1045.762207 852.501648,1054.115234 850.050110,1061.959595 
	C844.574646,1079.480347 833.408203,1091.442505 814.208862,1093.489014 
	C795.679138,1095.464111 782.154419,1086.839722 772.064758,1072.057739 
	C764.742920,1061.330933 761.644104,1049.178589 760.982056,1035.846680 
z"/>
<path fill="#191918" opacity="1.000000" stroke="none" 
	d="
M1577.000000,1013.042114 
	C1556.384521,1013.042297 1536.269043,1013.042297 1516.160645,1013.042297 
	C1519.338257,984.805359 1540.023682,965.137268 1567.094360,967.526978 
	C1591.390015,969.671753 1606.412964,987.235901 1606.380249,1013.041870 
	C1596.760376,1013.041870 1587.130249,1013.041870 1577.000000,1013.042114 
z"/>
<path fill="#191918" opacity="1.000000" stroke="none" 
	d="
M1157.587891,1042.458984 
	C1173.874146,1039.243774 1189.765381,1036.176636 1206.236328,1032.997559 
	C1206.236328,1040.240967 1206.252197,1048.321289 1206.211304,1056.401123 
	C1206.207275,1057.203979 1205.998657,1058.074585 1205.645996,1058.796997 
	C1195.346802,1079.893921 1179.899170,1094.597778 1155.719116,1097.657715 
	C1134.546631,1100.337036 1119.968750,1084.017944 1124.914551,1063.759155 
	C1126.679565,1056.528809 1131.476074,1051.745605 1137.911621,1048.973633 
	C1144.103882,1046.306396 1150.747437,1044.686890 1157.587891,1042.458984 
z"/>
<path fill="#FE851B" opacity="1.000000" stroke="none" 
	d="
M480.284027,995.773071 
	C482.807434,1020.067566 465.066620,1042.504272 441.693146,1045.069824 
	C416.388977,1047.847412 393.736725,1030.823730 391.000946,1006.973450 
	C388.067078,981.396301 405.150116,958.610657 429.261230,955.941223 
	C455.326172,953.055481 477.330780,970.066223 480.284027,995.773071 
z"/>
</svg>