<svg version="1.1" id="Layer_1" xmlns="http://www.w3.org/2000/svg" xmlns:xlink="http://www.w3.org/1999/xlink" x="0px" y="0px"
	 width="100%" viewBox="0 0 1472 345" enable-background="new 0 0 1472 345" xml:space="preserve">
<path fill="#191918" opacity="1.000000" stroke="none" 
	d="
M982.000000,346.000000 
	C654.666687,346.000000 327.833374,346.000000 1.000044,346.000000 
	C1.000029,231.000031 1.000029,116.000053 1.000015,1.000059 
	C491.666626,1.000040 982.333252,1.000040 1473.000000,1.000020 
	C1473.000000,115.999939 1473.000000,230.999878 1473.000000,345.999908 
	C1309.500000,346.000000 1146.000000,346.000000 982.000000,346.000000 
M271.164703,34.331432 
	C193.371658,-20.140900 87.945778,-1.735467 33.105339,75.892242 
	C-20.521179,151.801651 -2.118091,258.304810 73.949318,312.266205 
	C151.285477,367.127625 256.761536,349.113007 312.111969,271.589600 
	C366.233856,195.786758 348.127441,89.585846 271.164703,34.331432 
M451.499634,253.499695 
	C451.499634,268.959534 451.499634,284.419373 451.499634,299.989502 
	C464.765442,299.989502 477.515869,299.989502 490.436951,299.989502 
	C490.436951,281.950897 490.436951,264.197083 490.436951,246.238083 
	C492.629852,246.238083 494.703583,246.238083 496.655914,246.238083 
	C497.534058,249.722580 498.192749,252.984772 499.178802,256.144806 
	C505.888885,277.648621 517.284546,295.383453 540.221558,301.942963 
	C572.037476,311.041779 608.736084,302.398895 626.326355,266.693146 
	C646.634216,225.471069 646.188293,183.022202 625.681335,141.829407 
	C615.190369,120.755814 597.317749,107.587410 573.353027,104.602188 
	C547.265015,101.352440 525.220337,107.679214 510.469910,132.380890 
	C505.751282,140.282990 502.297974,149.089523 499.358063,157.848862 
	C497.608887,163.060623 495.444672,164.933258 489.559509,163.060730 
	C500.609192,122.596176 497.643585,81.139442 497.921478,39.875671 
	C482.179871,39.875671 467.066071,39.875671 451.499664,39.875671 
	C451.499664,110.926514 451.499664,181.713104 451.499634,253.499695 
M1314.500000,213.055405 
	C1338.278320,213.055405 1362.056763,213.055405 1387.367798,213.055405 
	C1386.528687,200.254532 1386.514038,188.255096 1384.803345,176.502533 
	C1381.705811,155.224152 1373.344849,136.281677 1356.536743,121.963478 
	C1341.841187,109.444786 1324.365234,104.440849 1305.458496,103.563911 
	C1264.675171,101.672295 1230.083374,120.105148 1214.239136,160.777924 
	C1203.972900,187.132263 1202.818604,214.440918 1210.366089,241.617783 
	C1218.906982,272.371979 1238.998169,292.333466 1269.953491,300.900879 
	C1287.884155,305.863525 1306.145508,306.159424 1324.432861,303.674622 
	C1340.014160,301.557495 1354.361328,296.174164 1366.395386,285.621338 
	C1378.201172,275.268677 1385.073486,262.179688 1388.343994,246.548691 
	C1374.668335,243.465103 1361.373901,240.467438 1348.148682,237.485413 
	C1338.520752,269.030731 1313.787354,274.304260 1287.974365,268.344696 
	C1264.859009,263.007965 1248.182739,237.185974 1251.739868,213.055466 
	C1272.232910,213.055466 1292.866455,213.055466 1314.500000,213.055405 
M989.093506,253.286224 
	C988.828979,231.799240 988.771301,210.306854 988.210266,188.827621 
	C987.941528,178.541000 987.562317,168.129272 985.765930,158.035339 
	C981.002625,131.269394 966.264709,112.909012 938.887085,106.647148 
	C915.879272,101.384735 892.798828,101.844940 870.436096,109.380669 
	C844.733337,118.041878 828.207581,135.984100 820.853882,162.693024 
	C834.823181,166.993774 848.506531,171.206467 862.450562,175.499420 
	C865.475342,160.727356 873.070435,150.105316 886.347168,144.221878 
	C897.458923,139.297821 909.160156,138.456909 921.045105,140.894424 
	C932.116699,143.165115 939.281677,150.026093 941.448669,160.929153 
	C944.269165,175.120361 940.083435,181.251541 928.022400,184.238510 
	C926.896667,184.517319 925.777405,184.837418 924.637817,185.042450 
	C909.758545,187.719345 894.759583,189.865494 880.032776,193.210770 
	C868.924194,195.734131 857.825867,198.972046 847.314209,203.320892 
	C822.055969,213.770569 813.604553,233.106323 816.595093,259.680603 
	C819.054871,281.538025 830.803162,296.153900 852.037170,302.510529 
	C863.900696,306.061981 876.069702,306.067841 888.088379,303.339600 
	C912.952759,297.695374 928.999207,281.630005 939.031372,258.946075 
	C940.673889,255.232010 942.460022,253.489639 946.440857,254.939606 
	C947.926636,270.038147 949.413513,285.147888 950.865784,299.905640 
	C965.504761,299.905640 979.094727,299.905640 992.396484,299.905640 
	C991.293762,284.447998 990.216187,269.342316 989.093506,253.286224 
M1116.500000,262.019348 
	C1104.362915,262.019348 1092.225708,262.019348 1078.423828,262.019348 
	C1080.363281,258.599854 1081.309082,255.832367 1083.130981,253.884369 
	C1112.031494,222.983963 1140.673584,191.825897 1170.246460,161.579224 
	C1179.736206,151.873291 1185.493286,142.284195 1183.329956,128.475647 
	C1182.489258,123.109940 1183.216187,117.502220 1183.174072,112.005150 
	C1183.164429,110.755066 1182.926147,109.506737 1182.814453,108.459190 
	C1129.353638,108.459190 1076.308716,108.459190 1023.265015,108.459190 
	C1023.265015,121.087364 1023.265015,133.355698 1023.265015,146.184052 
	C1056.836792,146.184052 1090.197266,146.184052 1125.250366,146.184052 
	C1123.233276,149.768463 1122.285278,152.572678 1120.447998,154.551361 
	C1088.599365,188.851395 1056.635010,223.043869 1024.733032,257.294403 
	C1023.531189,258.584625 1021.861694,260.208374 1021.834595,261.702515 
	C1021.603516,274.454132 1021.702148,287.211761 1021.702148,300.092224 
	C1076.019775,300.092224 1129.760864,300.092224 1183.690674,300.092224 
	C1183.690674,287.363281 1183.690674,274.819611 1183.690674,262.019348 
	C1161.430786,262.019348 1139.465332,262.019348 1116.500000,262.019348 
M794.760803,104.613388 
	C788.616028,104.443428 782.419556,103.683472 776.336243,104.215935 
	C759.200439,105.715790 745.416382,113.381744 737.021301,128.730103 
	C733.238586,135.645889 730.476562,143.232147 728.122864,150.785721 
	C725.775513,158.318878 724.518372,166.191711 722.775024,173.952408 
	C720.825256,173.952408 719.057800,173.952408 717.147339,173.952408 
	C717.147339,152.022690 717.147339,130.281082 717.147339,108.360794 
	C704.210999,108.360794 691.488586,108.360794 678.515381,108.360794 
	C678.515381,172.338486 678.515381,236.052063 678.515381,300.023438 
	C693.993958,300.023438 709.222290,300.023438 724.900269,300.023438 
	C724.900269,297.980560 724.900269,296.189056 724.900269,294.397552 
	C724.900269,269.576141 725.123352,244.751968 724.820129,219.934250 
	C724.625549,204.002106 729.069397,189.346283 736.377502,175.599716 
	C745.691650,158.079880 760.603577,149.531143 780.644775,151.136063 
	C786.787354,151.627975 792.848816,153.131851 799.354492,154.241745 
	C799.953125,138.257095 800.550110,122.317436 801.156860,106.118179 
	C799.115845,105.634766 797.372864,105.221947 794.760803,104.613388 
M1440.447510,249.998734 
	C1438.285400,250.031311 1436.115967,249.960861 1433.962402,250.113510 
	C1421.860107,250.971298 1412.784424,256.612305 1410.633545,266.246735 
	C1409.226196,272.550659 1409.265259,279.425507 1409.987305,285.896149 
	C1410.964600,294.653107 1416.838379,300.183777 1425.078735,302.706146 
	C1435.357666,305.852509 1445.743774,305.697510 1455.938843,302.067413 
	C1461.485962,300.092316 1465.695801,296.489288 1468.282837,291.106171 
	C1477.320679,272.300110 1467.739258,253.590546 1447.363647,250.356384 
	C1445.404785,250.045456 1443.386230,250.110336 1440.447510,249.998734 
z"/>
<path fill="#FE851B" opacity="1.000000" stroke="none" 
	d="
M271.450439,34.551025 
	C348.127441,89.585846 366.233856,195.786758 312.111969,271.589600 
	C256.761536,349.113007 151.285477,367.127625 73.949318,312.266205 
	C-2.118091,258.304810 -20.521179,151.801651 33.105339,75.892242 
	C87.945778,-1.735467 193.371658,-20.140900 271.450439,34.551025 
M86.391052,89.891289 
	C84.271049,92.012863 82.334045,94.370110 79.983727,96.195068 
	C77.183113,98.369690 77.325394,100.433426 78.643509,103.446098 
	C82.642845,112.586990 86.310226,121.873726 90.067429,131.119705 
	C92.171860,136.298416 89.504883,142.863220 84.379822,145.079697 
	C75.068634,149.106613 65.771255,153.170609 56.382626,157.010101 
	C53.717640,158.099945 52.480022,159.396255 52.572918,162.458374 
	C52.800201,169.950089 52.798103,177.457886 52.573654,184.949768 
	C52.482136,188.004517 53.684040,189.311142 56.382015,190.376862 
	C65.352257,193.920227 74.222450,197.717651 83.120491,201.442780 
	C89.872765,204.269577 92.463821,210.317291 89.795006,216.999802 
	C86.155098,226.113815 82.609154,235.268417 78.768402,244.297348 
	C77.604820,247.032730 77.859482,248.780075 80.030014,250.830933 
	C85.235939,255.749802 90.348152,260.786407 95.213844,266.038879 
	C97.596085,268.610504 99.598801,269.157806 102.916428,267.682007 
	C112.183212,263.559753 121.618225,259.812408 131.018387,255.994766 
	C135.701294,254.092911 142.161469,256.797028 144.163528,261.434906 
	C148.251129,270.904022 152.376083,280.358887 156.290817,289.899597 
	C157.441940,292.705017 158.827591,294.035339 162.102936,293.911865 
	C169.424515,293.635803 176.768005,293.678802 184.093506,293.896851 
	C187.077164,293.985626 188.528580,292.979736 189.619705,290.219849 
	C193.410843,280.630432 197.446777,271.137482 201.423218,261.621826 
	C203.563232,256.500763 209.768265,253.885223 214.867859,255.926529 
	C224.594971,259.820190 234.355316,263.636200 244.007629,267.707794 
	C246.588120,268.796295 248.134171,268.420715 250.027542,266.422028 
	C255.182495,260.980377 260.461487,255.641571 265.938538,250.526779 
	C268.197937,248.416840 268.274170,246.647156 267.133881,243.990982 
	C263.000275,234.362518 259.062286,224.649506 255.103973,214.946594 
	C253.240036,210.377533 255.824921,204.159119 260.356079,202.223068 
	C270.145905,198.040100 280.006042,194.014389 289.696228,189.613449 
	C291.187714,188.936066 292.802307,186.644119 292.869659,185.036438 
	C293.197296,177.218277 293.192902,169.371704 292.872620,161.552933 
	C292.807312,159.958450 291.224518,157.666855 289.755188,157.012344 
	C280.187531,152.750565 270.457397,148.853729 260.782074,144.833466 
	C255.588348,142.675400 253.081787,136.691986 255.202866,131.407455 
	C259.043732,121.838257 262.799957,112.232063 266.849457,102.751472 
	C268.104126,99.813980 267.625885,98.017311 265.345154,95.880814 
	C259.997131,90.871078 254.803787,85.680328 249.797668,80.329124 
	C247.714142,78.101967 245.996918,77.971230 243.309906,79.138618 
	C234.159088,83.114235 224.883850,86.803131 215.661591,90.614761 
	C209.289093,93.248558 203.668243,90.885628 200.905518,84.405357 
	C196.926315,75.071701 193.059097,65.686226 188.825119,56.469395 
	C188.141785,54.981884 185.841644,53.391617 184.225510,53.322094 
	C176.574417,52.992939 168.898102,53.302124 161.237747,53.108425 
	C158.428558,53.037395 157.077332,54.077393 156.067535,56.589386 
	C152.531372,65.385887 148.807312,74.106895 145.149338,82.854362 
	C141.545776,91.471703 136.734299,93.470551 128.048752,89.973976 
	C123.110886,87.986122 118.182236,85.974594 113.226936,84.031090 
	C108.296158,82.097198 102.888306,78.053291 98.516441,78.952858 
	C94.111908,79.859146 90.724380,85.708015 86.391052,89.891289 
z"/>
<path fill="#FEFEFE" opacity="1.000000" stroke="none" 
	d="
M451.499634,252.999695 
	C451.499664,181.713104 451.499664,110.926514 451.499664,39.875671 
	C467.066071,39.875671 482.179871,39.875671 497.921478,39.875671 
	C497.643585,81.139442 500.609192,122.596176 489.559509,163.060730 
	C495.444672,164.933258 497.608887,163.060623 499.358063,157.848862 
	C502.297974,149.089523 505.751282,140.282990 510.469910,132.380890 
	C525.220337,107.679214 547.265015,101.352440 573.353027,104.602188 
	C597.317749,107.587410 615.190369,120.755814 625.681335,141.829407 
	C646.188293,183.022202 646.634216,225.471069 626.326355,266.693146 
	C608.736084,302.398895 572.037476,311.041779 540.221558,301.942963 
	C517.284546,295.383453 505.888885,277.648621 499.178802,256.144806 
	C498.192749,252.984772 497.534058,249.722580 496.655914,246.238083 
	C494.703583,246.238083 492.629852,246.238083 490.436951,246.238083 
	C490.436951,264.197083 490.436951,281.950897 490.436951,299.989502 
	C477.515869,299.989502 464.765442,299.989502 451.499634,299.989502 
	C451.499634,284.419373 451.499634,268.959534 451.499634,252.999695 
M589.755676,182.960785 
	C588.809265,179.613052 588.090027,176.180466 586.876709,172.932449 
	C581.919922,159.664093 574.351196,148.437027 560.092590,144.104919 
	C543.101990,138.942749 528.225342,143.394867 516.052551,156.222519 
	C494.329529,179.114182 491.469940,220.669189 509.939850,246.359741 
	C520.512146,261.065216 534.510376,268.981537 553.200378,266.207153 
	C571.037048,263.559448 581.225037,252.034546 586.887695,235.992554 
	C592.895813,218.971909 592.887146,201.428314 589.755676,182.960785 
z"/>
<path fill="#FDFDFD" opacity="1.000000" stroke="none" 
	d="
M1314.000000,213.055435 
	C1292.866455,213.055466 1272.232910,213.055466 1251.739868,213.055466 
	C1248.182739,237.185974 1264.859009,263.007965 1287.974365,268.344696 
	C1313.787354,274.304260 1338.520752,269.030731 1348.148682,237.485413 
	C1361.373901,240.467438 1374.668335,243.465103 1388.343994,246.548691 
	C1385.073486,262.179688 1378.201172,275.268677 1366.395386,285.621338 
	C1354.361328,296.174164 1340.014160,301.557495 1324.432861,303.674622 
	C1306.145508,306.159424 1287.884155,305.863525 1269.953491,300.900879 
	C1238.998169,292.333466 1218.906982,272.371979 1210.366089,241.617783 
	C1202.818604,214.440918 1203.972900,187.132263 1214.239136,160.777924 
	C1230.083374,120.105148 1264.675171,101.672295 1305.458496,103.563911 
	C1324.365234,104.440849 1341.841187,109.444786 1356.536743,121.963478 
	C1373.344849,136.281677 1381.705811,155.224152 1384.803345,176.502533 
	C1386.514038,188.255096 1386.528687,200.254532 1387.367798,213.055405 
	C1362.056763,213.055405 1338.278320,213.055405 1314.000000,213.055435 
M1255.645996,186.610107 
	C1284.892822,186.610107 1314.139648,186.610107 1343.773071,186.610107 
	C1343.496704,183.756027 1343.343750,182.130508 1343.181274,180.505951 
	C1340.270386,151.415497 1316.685059,134.778259 1288.399902,141.862091 
	C1270.377319,146.375702 1254.263306,165.484451 1253.060425,183.947159 
	C1253.005493,184.791565 1254.183594,185.716309 1255.645996,186.610107 
z"/>
<path fill="#FDFDFD" opacity="1.000000" stroke="none" 
	d="
M989.116089,253.761414 
	C990.216187,269.342316 991.293762,284.447998 992.396484,299.905640 
	C979.094727,299.905640 965.504761,299.905640 950.865784,299.905640 
	C949.413513,285.147888 947.926636,270.038147 946.440857,254.939606 
	C942.460022,253.489639 940.673889,255.232010 939.031372,258.946075 
	C928.999207,281.630005 912.952759,297.695374 888.088379,303.339600 
	C876.069702,306.067841 863.900696,306.061981 852.037170,302.510529 
	C830.803162,296.153900 819.054871,281.538025 816.595093,259.680603 
	C813.604553,233.106323 822.055969,213.770569 847.314209,203.320892 
	C857.825867,198.972046 868.924194,195.734131 880.032776,193.210770 
	C894.759583,189.865494 909.758545,187.719345 924.637817,185.042450 
	C925.777405,184.837418 926.896667,184.517319 928.022400,184.238510 
	C940.083435,181.251541 944.269165,175.120361 941.448669,160.929153 
	C939.281677,150.026093 932.116699,143.165115 921.045105,140.894424 
	C909.160156,138.456909 897.458923,139.297821 886.347168,144.221878 
	C873.070435,150.105316 865.475342,160.727356 862.450562,175.499420 
	C848.506531,171.206467 834.823181,166.993774 820.853882,162.693024 
	C828.207581,135.984100 844.733337,118.041878 870.436096,109.380669 
	C892.798828,101.844940 915.879272,101.384735 938.887085,106.647148 
	C966.264709,112.909012 981.002625,131.269394 985.765930,158.035339 
	C987.562317,168.129272 987.941528,178.541000 988.210266,188.827621 
	C988.771301,210.306854 988.828979,231.799240 989.116089,253.761414 
M870.318848,224.738754 
	C867.525269,228.721649 863.388794,232.333572 862.168335,236.751099 
	C856.612488,256.860138 871.484253,273.316650 892.670227,270.661835 
	C916.868225,267.629639 932.334045,252.922989 942.640076,231.810211 
	C942.993103,231.087021 943.208679,230.217926 943.212769,229.415405 
	C943.254211,221.330322 943.237976,213.244949 943.237976,205.998947 
	C928.712402,208.784515 914.740479,211.334076 900.827942,214.174576 
	C890.447083,216.294037 879.937622,218.182724 870.318848,224.738754 
z"/>
<path fill="#FEFEFE" opacity="1.000000" stroke="none" 
	d="
M1117.000000,262.019348 
	C1139.465332,262.019348 1161.430786,262.019348 1183.690674,262.019348 
	C1183.690674,274.819611 1183.690674,287.363281 1183.690674,300.092224 
	C1129.760864,300.092224 1076.019775,300.092224 1021.702148,300.092224 
	C1021.702148,287.211761 1021.603516,274.454132 1021.834595,261.702515 
	C1021.861694,260.208374 1023.531189,258.584625 1024.733032,257.294403 
	C1056.635010,223.043869 1088.599365,188.851395 1120.447998,154.551361 
	C1122.285278,152.572678 1123.233276,149.768463 1125.250366,146.184052 
	C1090.197266,146.184052 1056.836792,146.184052 1023.265015,146.184052 
	C1023.265015,133.355698 1023.265015,121.087364 1023.265015,108.459190 
	C1076.308716,108.459190 1129.353638,108.459190 1182.814453,108.459190 
	C1182.926147,109.506737 1183.164429,110.755066 1183.174072,112.005150 
	C1183.216187,117.502220 1182.489258,123.109940 1183.329956,128.475647 
	C1185.493286,142.284195 1179.736206,151.873291 1170.246460,161.579224 
	C1140.673584,191.825897 1112.031494,222.983963 1083.130981,253.884369 
	C1081.309082,255.832367 1080.363281,258.599854 1078.423828,262.019348 
	C1092.225708,262.019348 1104.362915,262.019348 1117.000000,262.019348 
z"/>
<path fill="#FDFDFD" opacity="1.000000" stroke="none" 
	d="
M795.195312,104.711258 
	C797.372864,105.221947 799.115845,105.634766 801.156860,106.118179 
	C800.550110,122.317436 799.953125,138.257095 799.354492,154.241745 
	C792.848816,153.131851 786.787354,151.627975 780.644775,151.136063 
	C760.603577,149.531143 745.691650,158.079880 736.377502,175.599716 
	C729.069397,189.346283 724.625549,204.002106 724.820129,219.934250 
	C725.123352,244.751968 724.900269,269.576141 724.900269,294.397552 
	C724.900269,296.189056 724.900269,297.980560 724.900269,300.023438 
	C709.222290,300.023438 693.993958,300.023438 678.515381,300.023438 
	C678.515381,236.052063 678.515381,172.338486 678.515381,108.360794 
	C691.488586,108.360794 704.210999,108.360794 717.147339,108.360794 
	C717.147339,130.281082 717.147339,152.022690 717.147339,173.952408 
	C719.057800,173.952408 720.825256,173.952408 722.775024,173.952408 
	C724.518372,166.191711 725.775513,158.318878 728.122864,150.785721 
	C730.476562,143.232147 733.238586,135.645889 737.021301,128.730103 
	C745.416382,113.381744 759.200439,105.715790 776.336243,104.215935 
	C782.419556,103.683472 788.616028,104.443428 795.195312,104.711258 
z"/>
<path fill="#FD841C" opacity="1.000000" stroke="none" 
	d="
M1440.921387,249.999741 
	C1443.386230,250.110336 1445.404785,250.045456 1447.363647,250.356384 
	C1467.739258,253.590546 1477.320679,272.300110 1468.282837,291.106171 
	C1465.695801,296.489288 1461.485962,300.092316 1455.938843,302.067413 
	C1445.743774,305.697510 1435.357666,305.852509 1425.078735,302.706146 
	C1416.838379,300.183777 1410.964600,294.653107 1409.987305,285.896149 
	C1409.265259,279.425507 1409.226196,272.550659 1410.633545,266.246735 
	C1412.784424,256.612305 1421.860107,250.971298 1433.962402,250.113510 
	C1436.115967,249.960861 1438.285400,250.031311 1440.921387,249.999741 
z"/>
<path fill="#191918" opacity="1.000000" stroke="none" 
	d="
M86.641144,89.641281 
	C90.724380,85.708015 94.111908,79.859146 98.516441,78.952858 
	C102.888306,78.053291 108.296158,82.097198 113.226936,84.031090 
	C118.182236,85.974594 123.110886,87.986122 128.048752,89.973976 
	C136.734299,93.470551 141.545776,91.471703 145.149338,82.854362 
	C148.807312,74.106895 152.531372,65.385887 156.067535,56.589386 
	C157.077332,54.077393 158.428558,53.037395 161.237747,53.108425 
	C168.898102,53.302124 176.574417,52.992939 184.225510,53.322094 
	C185.841644,53.391617 188.141785,54.981884 188.825119,56.469395 
	C193.059097,65.686226 196.926315,75.071701 200.905518,84.405357 
	C203.668243,90.885628 209.289093,93.248558 215.661591,90.614761 
	C224.883850,86.803131 234.159088,83.114235 243.309906,79.138618 
	C245.996918,77.971230 247.714142,78.101967 249.797668,80.329124 
	C254.803787,85.680328 259.997131,90.871078 265.345154,95.880814 
	C267.625885,98.017311 268.104126,99.813980 266.849457,102.751472 
	C262.799957,112.232063 259.043732,121.838257 255.202866,131.407455 
	C253.081787,136.691986 255.588348,142.675400 260.782074,144.833466 
	C270.457397,148.853729 280.187531,152.750565 289.755188,157.012344 
	C291.224518,157.666855 292.807312,159.958450 292.872620,161.552933 
	C293.192902,169.371704 293.197296,177.218277 292.869659,185.036438 
	C292.802307,186.644119 291.187714,188.936066 289.696228,189.613449 
	C280.006042,194.014389 270.145905,198.040100 260.356079,202.223068 
	C255.824921,204.159119 253.240036,210.377533 255.103973,214.946594 
	C259.062286,224.649506 263.000275,234.362518 267.133881,243.990982 
	C268.274170,246.647156 268.197937,248.416840 265.938538,250.526779 
	C260.461487,255.641571 255.182495,260.980377 250.027542,266.422028 
	C248.134171,268.420715 246.588120,268.796295 244.007629,267.707794 
	C234.355316,263.636200 224.594971,259.820190 214.867859,255.926529 
	C209.768265,253.885223 203.563232,256.500763 201.423218,261.621826 
	C197.446777,271.137482 193.410843,280.630432 189.619705,290.219849 
	C188.528580,292.979736 187.077164,293.985626 184.093506,293.896851 
	C176.768005,293.678802 169.424515,293.635803 162.102936,293.911865 
	C158.827591,294.035339 157.441940,292.705017 156.290817,289.899597 
	C152.376083,280.358887 148.251129,270.904022 144.163528,261.434906 
	C142.161469,256.797028 135.701294,254.092911 131.018387,255.994766 
	C121.618225,259.812408 112.183212,263.559753 102.916428,267.682007 
	C99.598801,269.157806 97.596085,268.610504 95.213844,266.038879 
	C90.348152,260.786407 85.235939,255.749802 80.030014,250.830933 
	C77.859482,248.780075 77.604820,247.032730 78.768402,244.297348 
	C82.609154,235.268417 86.155098,226.113815 89.795006,216.999802 
	C92.463821,210.317291 89.872765,204.269577 83.120491,201.442780 
	C74.222450,197.717651 65.352257,193.920227 56.382015,190.376862 
	C53.684040,189.311142 52.482136,188.004517 52.573654,184.949768 
	C52.798103,177.457886 52.800201,169.950089 52.572918,162.458374 
	C52.480022,159.396255 53.717640,158.099945 56.382626,157.010101 
	C65.771255,153.170609 75.068634,149.106613 84.379822,145.079697 
	C89.504883,142.863220 92.171860,136.298416 90.067429,131.119705 
	C86.310226,121.873726 82.642845,112.586990 78.643509,103.446098 
	C77.325394,100.433426 77.183113,98.369690 79.983727,96.195068 
	C82.334045,94.370110 84.271049,92.012863 86.641144,89.641281 
M152.694916,213.926926 
	C160.518219,217.728043 168.734772,219.075317 177.401321,218.231216 
	C203.098801,215.728363 221.078201,191.865875 216.943451,165.625992 
	C213.034836,140.821167 187.276505,123.692612 162.690582,129.549408 
	C144.561005,133.868164 130.664673,148.537277 128.092499,166.071457 
	C125.167778,186.009079 133.854019,203.272339 152.694916,213.926926 
z"/>
<path fill="#191919" opacity="1.000000" stroke="none" 
	d="
M589.843262,183.378632 
	C592.887146,201.428314 592.895813,218.971909 586.887695,235.992554 
	C581.225037,252.034546 571.037048,263.559448 553.200378,266.207153 
	C534.510376,268.981537 520.512146,261.065216 509.939850,246.359741 
	C491.469940,220.669189 494.329529,179.114182 516.052551,156.222519 
	C528.225342,143.394867 543.101990,138.942749 560.092590,144.104919 
	C574.351196,148.437027 581.919922,159.664093 586.876709,172.932449 
	C588.090027,176.180466 588.809265,179.613052 589.843262,183.378632 
z"/>
<path fill="#191919" opacity="1.000000" stroke="none" 
	d="
M1255.216675,186.606873 
	C1254.183594,185.716309 1253.005493,184.791565 1253.060425,183.947159 
	C1254.263306,165.484451 1270.377319,146.375702 1288.399902,141.862091 
	C1316.685059,134.778259 1340.270386,151.415497 1343.181274,180.505951 
	C1343.343750,182.130508 1343.496704,183.756027 1343.773071,186.610107 
	C1314.139648,186.610107 1284.892822,186.610107 1255.216675,186.606873 
z"/>
<path fill="#191919" opacity="1.000000" stroke="none" 
	d="
M870.595093,224.503952 
	C879.937622,218.182724 890.447083,216.294037 900.827942,214.174576 
	C914.740479,211.334076 928.712402,208.784515 943.237976,205.998947 
	C943.237976,213.244949 943.254211,221.330322 943.212769,229.415405 
	C943.208679,230.217926 942.993103,231.087021 942.640076,231.810211 
	C932.334045,252.922989 916.868225,267.629639 892.670227,270.661835 
	C871.484253,273.316650 856.612488,256.860138 862.168335,236.751099 
	C863.388794,232.333572 867.525269,228.721649 870.595093,224.503952 
z"/>
<path fill="#FE841B" opacity="1.000000" stroke="none" 
	d="
M152.354309,213.769989 
	C133.854019,203.272339 125.167778,186.009079 128.092499,166.071457 
	C130.664673,148.537277 144.561005,133.868164 162.690582,129.549408 
	C187.276505,123.692612 213.034836,140.821167 216.943451,165.625992 
	C221.078201,191.865875 203.098801,215.728363 177.401321,218.231216 
	C168.734772,219.075317 160.518219,217.728043 152.354309,213.769989 
z"/>
</svg>