<svg version="1.1" id="Layer_1" xmlns="http://www.w3.org/2000/svg" xmlns:xlink="http://www.w3.org/1999/xlink" x="0px" y="0px"
	 width="100%" viewBox="0 0 465 465" enable-background="new 0 0 465 465" xml:space="preserve">
<path fill="#000000" opacity="1.000000" stroke="none" 
	d="
M261.000000,466.000000 
	C174.000000,466.000000 87.500000,466.000000 1.000000,466.000000 
	C1.000000,311.000000 1.000000,156.000000 1.000000,1.000000 
	C156.000000,1.000000 311.000000,1.000000 466.000000,1.000000 
	C466.000000,156.000000 466.000000,311.000000 466.000000,466.000000 
	C397.833344,466.000000 329.666656,466.000000 261.000000,466.000000 
M417.460754,100.993507 
	C417.070251,100.279343 416.766663,99.498352 416.276459,98.860832 
	C404.922882,84.094597 392.511932,70.385223 378.073364,58.473244 
	C365.793945,48.342560 353.044586,38.831306 338.666901,32.170086 
	C323.350555,25.073950 307.628784,18.522360 291.522614,13.552527 
	C274.799164,8.392231 257.291534,6.067150 239.667801,6.059291 
	C230.571548,6.055235 221.413345,6.116887 212.393845,7.132301 
	C200.420532,8.480255 188.435455,10.239153 176.670227,12.806003 
	C155.987122,17.318489 136.689011,25.611330 118.383469,36.205795 
	C95.264908,49.585823 74.804260,66.262169 57.787006,86.837868 
	C42.872318,104.871330 30.761660,124.710632 21.785675,146.444138 
	C12.440952,169.070480 6.678249,192.609619 5.197442,216.912857 
	C4.074792,235.337936 4.538699,253.871033 7.862969,272.247528 
	C11.383706,291.710052 16.830191,310.556885 25.197124,328.402283 
	C38.683334,357.166321 56.796230,382.567108 80.912697,403.640991 
	C93.928352,415.014618 107.798271,425.001862 122.837006,433.361267 
	C152.249893,449.710754 184.011276,458.631317 217.435669,460.808655 
	C238.676239,462.192322 259.911285,460.704041 280.873260,456.072754 
	C307.723328,450.140594 332.742767,439.967194 355.771210,424.997742 
	C371.617645,414.696777 386.461914,403.118225 398.776855,388.633636 
	C405.984589,380.156097 413.473145,371.841492 419.893616,362.785828 
	C434.291443,342.478577 444.698029,320.166718 451.401459,296.141418 
	C456.429657,278.120300 459.593140,259.806427 459.883698,241.097229 
	C460.022247,232.178070 459.296295,223.245682 458.967407,214.319061 
	C458.325806,196.905441 454.373901,180.105728 449.153656,163.603653 
	C442.087555,141.266434 431.839325,120.468086 417.460754,100.993507 
z"/>
<path fill="#FF851B" opacity="1.000000" stroke="none" 
	d="
M417.715790,101.255707 
	C431.839325,120.468086 442.087555,141.266434 449.153656,163.603653 
	C454.373901,180.105728 458.325806,196.905441 458.967407,214.319061 
	C459.296295,223.245682 460.022247,232.178070 459.883698,241.097229 
	C459.593140,259.806427 456.429657,278.120300 451.401459,296.141418 
	C444.698029,320.166718 434.291443,342.478577 419.893616,362.785828 
	C413.473145,371.841492 405.984589,380.156097 398.776855,388.633636 
	C386.461914,403.118225 371.617645,414.696777 355.771210,424.997742 
	C332.742767,439.967194 307.723328,450.140594 280.873260,456.072754 
	C259.911285,460.704041 238.676239,462.192322 217.435669,460.808655 
	C184.011276,458.631317 152.249893,449.710754 122.837006,433.361267 
	C107.798271,425.001862 93.928352,415.014618 80.912697,403.640991 
	C56.796230,382.567108 38.683334,357.166321 25.197124,328.402283 
	C16.830191,310.556885 11.383706,291.710052 7.862969,272.247528 
	C4.538699,253.871033 4.074792,235.337936 5.197442,216.912857 
	C6.678249,192.609619 12.440952,169.070480 21.785675,146.444138 
	C30.761660,124.710632 42.872318,104.871330 57.787006,86.837868 
	C74.804260,66.262169 95.264908,49.585823 118.383469,36.205795 
	C136.689011,25.611330 155.987122,17.318489 176.670227,12.806003 
	C188.435455,10.239153 200.420532,8.480255 212.393845,7.132301 
	C221.413345,6.116887 230.571548,6.055235 239.667801,6.059291 
	C257.291534,6.067150 274.799164,8.392231 291.522614,13.552527 
	C307.628784,18.522360 323.350555,25.073950 338.666901,32.170086 
	C353.044586,38.831306 365.793945,48.342560 378.073364,58.473244 
	C392.511932,70.385223 404.922882,84.094597 416.276459,98.860832 
	C416.766663,99.498352 417.070251,100.279343 417.715790,101.255707 
M267.403595,109.103722 
	C262.769440,98.234909 258.058746,87.397636 253.557861,76.473907 
	C252.504257,73.916801 251.115494,73.019897 248.358810,73.059486 
	C237.696213,73.212608 227.025482,73.297668 216.367874,73.020462 
	C212.869583,72.929474 211.429550,74.241005 210.208328,77.266136 
	C204.851440,90.535744 199.280457,103.719131 193.755936,116.920731 
	C191.607880,122.053802 182.274048,125.966202 177.132248,123.908096 
	C163.697418,118.530571 150.228928,113.232643 136.877411,107.655060 
	C133.887589,106.406059 132.085693,106.911308 129.938004,109.123337 
	C122.509819,116.774078 114.976067,124.326782 107.317406,131.746399 
	C105.190552,133.806870 104.881493,135.495102 106.044701,138.230698 
	C111.644615,151.400375 117.012741,164.668625 122.456688,177.904572 
	C124.691147,183.337234 120.715096,192.913223 115.238678,195.265991 
	C102.246719,200.847565 89.308891,206.563034 76.212875,211.889221 
	C72.808708,213.273697 71.872833,215.077881 71.943344,218.537796 
	C72.153816,228.865051 72.211502,239.204910 71.912888,249.527817 
	C71.810799,253.057159 73.190132,254.415024 76.173409,255.622635 
	C89.279541,260.927887 102.297020,266.452271 115.343353,271.905090 
	C120.777161,274.176208 124.753006,283.787964 122.546623,289.298950 
	C117.289352,302.430267 112.121918,315.598938 106.697868,328.661072 
	C105.448059,331.670837 105.520439,333.611145 108.029976,336.000183 
	C115.631172,343.236420 123.071152,350.655304 130.292084,358.270294 
	C132.689865,360.798950 134.589188,360.909210 137.609390,359.618195 
	C150.764603,353.994751 164.017410,348.598480 177.258972,343.178802 
	C182.391251,341.078186 191.765564,344.979034 193.939224,350.050903 
	C199.642624,363.358765 205.397476,376.645691 210.942368,390.019501 
	C212.135696,392.897736 213.636215,394.017273 216.824844,393.956268 
	C227.485748,393.752380 238.154984,393.765289 248.816544,393.951355 
	C251.814026,394.003662 253.161850,392.942383 254.258911,390.232758 
	C259.692017,376.813538 265.335541,363.479431 270.917023,350.120392 
	C273.286743,344.448517 282.070068,340.853424 287.848999,343.162872 
	C301.286499,348.532928 314.758942,353.818146 328.134521,359.338226 
	C330.883301,360.472656 332.565430,360.150177 334.632202,358.015045 
	C342.164215,350.233826 349.828857,342.575745 357.621552,335.055725 
	C359.650116,333.098114 359.864899,331.539948 358.798615,329.017670 
	C353.031769,315.376282 347.425049,301.666840 341.817474,287.958679 
	C339.782715,282.984558 343.416565,274.246643 348.343018,272.138031 
	C361.496948,266.507904 374.615601,260.789703 387.861115,255.382950 
	C391.404633,253.936493 393.026123,252.296494 392.882111,248.169525 
	C392.527832,238.016983 392.563934,227.837631 392.871735,217.682053 
	C392.984436,213.963211 391.481567,212.468445 388.343811,211.202744 
	C375.230560,205.913132 362.196014,200.428055 349.145172,194.984406 
	C342.958557,192.403915 339.552307,184.112823 342.077271,177.801880 
	C347.393555,164.514221 352.643646,151.198471 358.148163,137.988937 
	C359.374847,135.045197 358.975433,133.226974 356.726379,131.051651 
	C349.061859,123.638397 341.516113,116.097130 334.103088,108.432503 
	C332.040131,106.299545 330.344452,105.983185 327.623932,107.144043 
	C315.078705,112.497139 302.439850,117.631073 289.830841,122.834526 
	C280.940613,126.503334 273.534424,123.384865 269.705505,114.377060 
	C269.054535,112.845589 268.400909,111.315262 267.403595,109.103722 
z"/>
<path fill="#191818" opacity="1.000000" stroke="none" 
	d="
M267.576050,109.444061 
	C268.400909,111.315262 269.054535,112.845589 269.705505,114.377060 
	C273.534424,123.384865 280.940613,126.503334 289.830841,122.834526 
	C302.439850,117.631073 315.078705,112.497139 327.623932,107.144043 
	C330.344452,105.983185 332.040131,106.299545 334.103088,108.432503 
	C341.516113,116.097130 349.061859,123.638397 356.726379,131.051651 
	C358.975433,133.226974 359.374847,135.045197 358.148163,137.988937 
	C352.643646,151.198471 347.393555,164.514221 342.077271,177.801880 
	C339.552307,184.112823 342.958557,192.403915 349.145172,194.984406 
	C362.196014,200.428055 375.230560,205.913132 388.343811,211.202744 
	C391.481567,212.468445 392.984436,213.963211 392.871735,217.682053 
	C392.563934,227.837631 392.527832,238.016983 392.882111,248.169525 
	C393.026123,252.296494 391.404633,253.936493 387.861115,255.382950 
	C374.615601,260.789703 361.496948,266.507904 348.343018,272.138031 
	C343.416565,274.246643 339.782715,282.984558 341.817474,287.958679 
	C347.425049,301.666840 353.031769,315.376282 358.798615,329.017670 
	C359.864899,331.539948 359.650116,333.098114 357.621552,335.055725 
	C349.828857,342.575745 342.164215,350.233826 334.632202,358.015045 
	C332.565430,360.150177 330.883301,360.472656 328.134521,359.338226 
	C314.758942,353.818146 301.286499,348.532928 287.848999,343.162872 
	C282.070068,340.853424 273.286743,344.448517 270.917023,350.120392 
	C265.335541,363.479431 259.692017,376.813538 254.258911,390.232758 
	C253.161850,392.942383 251.814026,394.003662 248.816544,393.951355 
	C238.154984,393.765289 227.485748,393.752380 216.824844,393.956268 
	C213.636215,394.017273 212.135696,392.897736 210.942368,390.019501 
	C205.397476,376.645691 199.642624,363.358765 193.939224,350.050903 
	C191.765564,344.979034 182.391251,341.078186 177.258972,343.178802 
	C164.017410,348.598480 150.764603,353.994751 137.609390,359.618195 
	C134.589188,360.909210 132.689865,360.798950 130.292084,358.270294 
	C123.071152,350.655304 115.631172,343.236420 108.029976,336.000183 
	C105.520439,333.611145 105.448059,331.670837 106.697868,328.661072 
	C112.121918,315.598938 117.289352,302.430267 122.546623,289.298950 
	C124.753006,283.787964 120.777161,274.176208 115.343353,271.905090 
	C102.297020,266.452271 89.279541,260.927887 76.173409,255.622635 
	C73.190132,254.415024 71.810799,253.057159 71.912888,249.527817 
	C72.211502,239.204910 72.153816,228.865051 71.943344,218.537796 
	C71.872833,215.077881 72.808708,213.273697 76.212875,211.889221 
	C89.308891,206.563034 102.246719,200.847565 115.238678,195.265991 
	C120.715096,192.913223 124.691147,183.337234 122.456688,177.904572 
	C117.012741,164.668625 111.644615,151.400375 106.044701,138.230698 
	C104.881493,135.495102 105.190552,133.806870 107.317406,131.746399 
	C114.976067,124.326782 122.509819,116.774078 129.938004,109.123337 
	C132.085693,106.911308 133.887589,106.406059 136.877411,107.655060 
	C150.228928,113.232643 163.697418,118.530571 177.132248,123.908096 
	C182.274048,125.966202 191.607880,122.053802 193.755936,116.920731 
	C199.280457,103.719131 204.851440,90.535744 210.208328,77.266136 
	C211.429550,74.241005 212.869583,72.929474 216.367874,73.020462 
	C227.025482,73.297668 237.696213,73.212608 248.358810,73.059486 
	C251.115494,73.019897 252.504257,73.916801 253.557861,76.473907 
	C258.058746,87.397636 262.769440,98.234909 267.576050,109.444061 
M172.016418,229.734772 
	C169.573196,273.241547 212.183609,304.998108 253.298447,289.710846 
	C281.071259,279.384369 297.437256,249.008774 290.700928,220.327850 
	C283.745880,190.715729 256.359985,170.737274 226.761002,173.682663 
	C197.106659,176.633560 175.652756,198.255249 172.016418,229.734772 
z"/>
<path fill="#FE841B" opacity="1.000000" stroke="none" 
	d="
M172.040466,229.270874 
	C175.652756,198.255249 197.106659,176.633560 226.761002,173.682663 
	C256.359985,170.737274 283.745880,190.715729 290.700928,220.327850 
	C297.437256,249.008774 281.071259,279.384369 253.298447,289.710846 
	C212.183609,304.998108 169.573196,273.241547 172.040466,229.270874 
z"/>
</svg>